<?xml version="1.0" encoding="UTF-8"?>
<svg id="_圖層_2" data-name="圖層 2" xmlns="http://www.w3.org/2000/svg" viewBox="0 0 433.67 421.07">
  <defs>
    <style>
      .cls-1 {
        fill: #fff;
      }

      .cls-2 {
        fill: none;
        stroke: #fff;
        stroke-miterlimit: 10;
        stroke-width: .95px;
      }
    </style>
  </defs>
  <g id="_圖層_1-2" data-name="圖層 1">
    <g>
      <g>
        <path class="cls-1" d="M23.84,60.04c.14.14.21.27.21.41s-.05.25-.14.34c-2.61,3.12-5.84,5.98-9.69,8.59-3.85,2.61-7.86,4.67-12.02,6.18-.09.04-.18.07-.27.07-.14,0-.27-.09-.41-.27l-.62-.76c-.09-.09-.14-.21-.14-.34,0-.18.09-.34.27-.48,3.25-2.29,6.41-5.18,9.48-8.66,3.02-3.48,5.31-6.71,6.87-9.69.14-.23.3-.34.48-.34s.34.07.48.21l5.5,4.74ZM38.89,17.71c.69,1.1,1.03,2.13,1.03,3.09s-.34,1.88-1.03,2.75h26.59c.18,0,.32.05.41.14.09.09.14.23.14.41v1.99c0,.18-.05.32-.14.41-.09.09-.23.14-.41.14H2.82c-.18,0-.32-.05-.41-.14-.09-.09-.14-.18-.14-.27-.41-1.37-.62-2.11-.62-2.2s.06-.19.17-.31c.11-.11.26-.17.45-.17h30.3c-.6-1.51-1.58-3.07-2.95-4.67-1.51-1.83-3.09-3.37-4.74-4.6-.18-.14-.27-.29-.27-.45s.07-.31.21-.45l.48-.48c.09-.09.23-.14.41-.14,6.73.14,11.13,1.79,13.19,4.95ZM21.09,51.59v1.24c0,.28-.14.56-.41.86-.27.3-.89.65-1.86,1.07-1.33.5-2.68.76-4.05.76h-.96c-.18,0-.32-.05-.41-.14-.09-.09-.14-.23-.14-.41v-21.3c0-.18.04-.32.14-.41.09-.09.23-.14.41-.14h40.06c.18,0,.32.05.41.14.09.09.14.23.14.41v18.76c0,.23-.09.44-.27.62-.32.32-1.05.69-2.2,1.1-1.42.46-2.68.69-3.78.69h-1.1c-.18,0-.32-.04-.41-.14-.09-.09-.14-.23-.14-.41v-2.68h-8.59v17.73c0,2.84-.7,4.96-2.1,6.36-1.4,1.4-4.07,2.23-8,2.51-.05.05-.12.07-.21.07s-.18-.06-.27-.17c-.09-.12-.14-.24-.14-.38-.23-2.06-.73-3.48-1.51-4.26-1.1-1.01-3.16-1.72-6.18-2.13-.14,0-.25-.04-.34-.14-.09-.09-.14-.23-.14-.41v-.89c0-.18.04-.33.14-.45.09-.11.18-.17.27-.17s1.43.1,4.02.31c2.59.21,4.41.31,5.46.31.41,0,.69-.07.82-.21.14-.14.21-.32.21-.55v-17.52h-8.86ZM21.09,36.19v12.3h25.42v-12.3h-25.42ZM43.22,56.53c.14-.14.25-.21.34-.21s.16.02.21.07c8.75,2.29,14.57,5.61,17.45,9.96,1.05,1.6,1.58,3.07,1.58,4.4,0,.83-.23,1.6-.69,2.34-.64,1.14-1.58,1.72-2.82,1.72-.55,0-1.19-.14-1.92-.41-.5-.18-.8-.32-.89-.41-.09-.09-.16-.16-.21-.21-1.15-2.43-3.02-5.09-5.63-7.97-2.66-2.93-5.34-5.52-8.04-7.76-.18-.14-.27-.29-.27-.45s.07-.31.21-.45l.69-.62Z"/>
        <path class="cls-1" d="M16.49,99.48h8.45c.18,0,.32.05.41.14.09.09.14.23.14.41v1.99c0,.18-.05.32-.14.41-.09.09-.23.14-.41.14h-8.45v2.68c4.31,1.24,6.8,3.12,7.49,5.63.14.46.21.87.21,1.24,0,1.15-.48,2.04-1.44,2.68-.6.37-1.23.55-1.89.55s-1.39-.3-2.16-.89c-.14-.09-.21-.23-.21-.41-.27-1.51-.94-3.11-1.99-4.81v18.9c0,.28-.11.55-.34.83-.32.32-.8.62-1.44.89-1.01.41-2.02.62-3.02.62h-1.1c-.18,0-.32-.04-.41-.14-.09-.09-.14-.23-.14-.41v-14.36c-2.29,3.89-4.99,7.4-8.11,10.51-.14.14-.27.21-.41.21l-.41-.21-.89-.96c-.14-.14-.21-.26-.21-.38s.04-.24.14-.38c3.8-5.59,6.64-12.85,8.52-21.78H2.4c-.18,0-.32-.04-.41-.14-.09-.09-.14-.18-.14-.28-.41-1.37-.62-2.11-.62-2.2s.06-.19.17-.31c.11-.11.26-.17.45-.17h8.18v-12.37c0-.18.04-.33.14-.45.09-.11.19-.17.31-.17s1.96.3,5.53.89c.14,0,.25.05.34.14.09.09.14.23.14.41v11.54ZM13.6,136.93c0,.6-.05,1.17-.14,1.72-.27,2.25-.82,4.08-1.65,5.5-.82,1.42-1.81,2.52-2.95,3.3-.96.64-1.97.96-3.02.96-1.79,0-3-.67-3.64-1.99-.23-.5-.34-1.03-.34-1.58,0-1.38.94-2.57,2.82-3.57,1.47-.83,2.78-2.18,3.95-4.05,1.17-1.88,1.77-3.87,1.82-5.98,0-.18.04-.33.14-.45.09-.11.18-.17.27-.17s.5.05,1.24.14c.23,0,.39.12.48.34.69,2.11,1.03,4.05,1.03,5.84ZM36.35,148.89h-9.28c-3.67,0-6.14-.39-7.42-1.17-1.24-.78-1.85-2.38-1.85-4.81v-12.37c0-.18.04-.33.14-.45.09-.11.18-.17.27-.17s2.34.27,6.73.82c.14,0,.25.05.34.14.09.09.14.23.14.41v10.58c0,.23.07.37.21.41.32.14,1.12.21,2.41.21h8.86c4.35,0,6.83-.02,7.42-.07.78-.04,1.31-.27,1.58-.69v-.07c.55-.82,1.47-3.21,2.75-7.15.04-.09.1-.17.17-.24.07-.07.19-.1.38-.1h.76c.18,0,.32.05.41.14.09.09.14.23.14.41l.21,7.08c.92.32,1.59.72,2.03,1.2.43.48.65,1.09.65,1.82,0,.82-.29,1.52-.86,2.1-.57.57-1.5,1-2.78,1.27-2.15.46-6.62.69-13.4.69ZM36.42,99.89c.37.69.55,1.36.55,2.03s-.16,1.3-.48,1.89h7.9c.18,0,.32.05.41.14.09.09.14.23.14.41v2.75c0,.09-.02.18-.07.28-1.6,2.79-3.5,5.2-5.7,7.21-.14.14-.26.21-.38.21s-.22-.04-.31-.14c-.69-.37-1.08-.59-1.17-.69-.09-.09-.14-.18-.14-.28s.02-.18.07-.27c.73-2.06,1.35-4.24,1.86-6.53h-2.27v14.64c0,2.38-.5,4.08-1.51,5.09-1.01,1.01-2.91,1.65-5.7,1.92-.05.05-.12.07-.21.07s-.18-.06-.27-.17c-.09-.11-.14-.24-.14-.38-.09-1.6-.37-2.61-.82-3.02-.6-.59-1.7-1.01-3.3-1.24-.14,0-.25-.05-.34-.14-.09-.09-.14-.23-.14-.41v-1.03c0-.18.05-.33.14-.45.09-.11.18-.17.27-.17s.77.06,2.03.17c1.26.12,2.11.17,2.54.17s.72-.02.86-.07c.04-.14.07-.3.07-.48v-6.39c-2.75,3.25-6.23,6.28-10.44,9.07-.14.09-.27.14-.41.14s-.27-.09-.41-.28l-.82-1.03c-.09-.09-.14-.21-.14-.34s.09-.3.27-.48.41-.39.69-.62c3.99-3.99,7.1-8.84,9.34-14.57h-6.53c-.18,0-.32-.04-.41-.14-.09-.09-.14-.18-.14-.28-.41-1.37-.62-2.11-.62-2.2s.06-.19.17-.31c.11-.11.26-.17.45-.17h9.96c-.6-.96-1.37-1.92-2.34-2.89-1.24-1.38-2.47-2.5-3.71-3.37-.18-.14-.27-.29-.27-.45s.07-.31.21-.45l.62-.55c.14-.09.23-.14.27-.14,3.21,0,5.73.48,7.56,1.44,1.01-1.6,1.74-2.82,2.2-3.64h-12.99c-.18,0-.31-.03-.38-.1-.07-.07-.13-.15-.17-.24-.46-1.42-.69-2.17-.69-2.27s.06-.19.17-.31c.11-.11.26-.17.45-.17h21.23c.18,0,.32.05.41.14.09.09.14.23.14.41v3.02c0,.18-.05.32-.14.41-2.11,1.88-4.58,3.62-7.42,5.22ZM29.75,128.27c.09-.09.18-.14.27-.14s.16.02.21.07c5.86,1.19,9.5,3.37,10.93,6.53.32.78.48,1.51.48,2.2,0,1.05-.39,1.97-1.17,2.75-.73.69-1.51,1.03-2.34,1.03s-1.7-.32-2.61-.96c-.14-.09-.21-.21-.21-.34-.32-1.69-1.08-3.41-2.27-5.15-1.19-1.79-2.52-3.32-3.99-4.6-.18-.14-.27-.27-.27-.41,0-.18.09-.34.27-.48l.69-.48ZM66.31,99.48c.18,0,.32.05.41.14.09.09.14.23.14.41v1.99c0,.18-.05.32-.14.41-.09.09-.23.14-.41.14h-9.28c.96,3.3,2.27,6.28,3.92,8.93,1.83,2.89,3.87,5.06,6.12,6.53.18.09.27.25.27.48,0,.05-.07.32-.21.82-.05.23-.18.37-.41.41-1.92.46-3.25,2.02-3.99,4.67,0,.09-.06.2-.17.31-.12.11-.24.17-.38.17-.27-.14-.44-.23-.48-.27-2.2-2.79-3.96-6.62-5.29-11.48v14.84c0,.27-.13.55-.38.82-.25.28-.77.57-1.55.89-1.6.5-2.63.76-3.09.76-.05,0-.07-.02-.07-.07h-1.03c-.18,0-.32-.04-.41-.14-.09-.09-.14-.23-.14-.41v-14.84c-2.79,4.03-6.21,7.51-10.24,10.44-.14.09-.26.14-.38.14s-.24-.07-.38-.21l-.82-.96c-.14-.14-.21-.28-.21-.41s.07-.28.21-.41c5.08-5.27,8.75-12.28,10.99-21.03h-5.77c-.18,0-.32-.04-.41-.14-.09-.09-.14-.18-.14-.28-.41-1.37-.62-2.11-.62-2.2s.06-.19.17-.31c.11-.11.26-.17.45-.17h7.15v-12.16c0-.18.05-.33.14-.45.09-.11.19-.17.31-.17s2.03.3,5.74.89c.14,0,.25.05.34.14.09.09.14.23.14.41v11.34h9.89ZM51.33,130.74c.09-.09.18-.14.27-.14s.18.02.27.07c6.69,2.2,10.97,5.36,12.85,9.48.55,1.28.82,2.47.82,3.57s-.34,2.11-1.03,3.02c-.78,1.01-1.7,1.51-2.75,1.51-.69,0-1.44-.21-2.27-.62-.73-.37-1.1-.71-1.1-1.03-.27-2.29-1.17-4.76-2.68-7.42-1.51-2.7-3.23-5.04-5.15-7.01-.14-.14-.21-.28-.21-.41,0-.18.09-.34.27-.48l.69-.55Z"/>
      </g>
      <g>
        <path class="cls-1" d="M125.94,23.81c-.15-.15-.37-.22-.66-.22h-36.7c-.3,0-.52.07-.66.22-.15.15-.22.37-.22.66v73.4c0,.3.07.52.22.66.15.15.37.22.66.22h1.66c1.62,0,3.17-.22,4.64-.66,1.47-.51,2.54-1.07,3.21-1.66.88-.74,1.33-1.4,1.33-1.99v-9.95h15.14v8.29c0,.3.07.52.22.66.15.15.37.22.66.22h1.55c1.77,0,3.68-.44,5.75-1.33,1.33-.66,2.23-1.23,2.71-1.71.48-.48.72-.94.72-1.38V24.47c0-.29-.07-.51-.22-.66ZM114.56,79.52h-15.14v-23.43h15.14v23.43ZM114.56,51.23h-15.14v-22.66h15.14v22.66Z"/>
        <path class="cls-1" d="M376.81,56.94c0,.42-.11.74-.33.95-.22.21-.55.32-.98.32h-30.92v8.04c13.96,4.73,22.58,10.99,25.85,18.77.87,2,1.31,3.84,1.31,5.52,0,2.52-.93,4.63-2.78,6.31l-.16.16c-1.64,1.26-3.44,1.89-5.4,1.89s-4.09-.84-6.38-2.52c-.33-.21-.49-.47-.49-.79-1.31-5.68-5.29-12.56-11.94-20.66v68.14c0,.84-.71,1.73-2.13,2.68-1.09.84-2.73,1.58-4.91,2.21-2.18.63-4.47.95-6.87.95h-2.62c-.44,0-.76-.11-.98-.32-.22-.21-.33-.53-.33-.95v-57.41c-7.85,12.52-31.93,31.69-31.71,31.38,12.43-15.35,22.21-38.05,28.54-63.39,0,0-28.57.21-28.57,0,.11,0,0-7.05,0-7.1h31.74v-26.34c-9.93,1.58-31.36,1.44-31.14,1.44,1.02,0,2.33-.62,3.31-.9,1.21-.35,2.42-.71,3.63-1.08,2.4-.74,4.77-1.57,7.15-2.38,4.73-1.62,9.45-3.26,14.12-5.05,4.71-1.81,9.36-3.77,13.87-6.01,4.58-2.28,8.89-4.94,13.21-7.68,1.49-.94,2.98-1.88,4.49-2.79.22-.21.46-.31.74-.31s.52.11.74.31c.22.21.38.37.49.47l7.36,14.83c.11.21.16.45.16.71s-.14.53-.41.79c-.27.26-.52.39-.74.39-4.15,1.26-10.53,2.68-19.14,4.26v29.34h30.92c.43,0,.76.11.98.32.22.21.33.53.33.95v4.57Z"/>
        <g>
          <path class="cls-1" d="M87.7,148.33c.69-.04,1.14-.15,1.35-.32.2-.18.31-.59.31-1.23v-7.68c0-.64-.1-1.04-.31-1.23-.2-.18-.65-.29-1.35-.32v-.32h4.84c1.38,0,2.48.22,3.29.67.81.45,1.22,1.21,1.22,2.3,0,.82-.28,1.44-.85,1.86-.32.24-.8.44-1.44.6.79.19,1.47.51,2.03.96.56.45.84,1.07.84,1.88,0,1.35-.62,2.28-1.87,2.78-.66.26-1.47.4-2.43.4h-5.63v-.32ZM94.19,142.06c.73-.34,1.1-.94,1.1-1.82,0-1.03-.42-1.73-1.27-2.09-.47-.2-1.18-.3-2.13-.3-.36,0-.58.03-.67.09-.08.06-.13.23-.13.51v3.91l1.64-.03c.58-.01,1.06-.1,1.44-.28ZM94.75,147.51c.6-.34.89-1,.89-1.97s-.35-1.63-1.05-1.98c-.7-.35-1.59-.53-2.67-.53h-.5c-.07,0-.18,0-.32,0v4.3c0,.3.08.49.25.58.17.09.56.13,1.17.13.88,0,1.62-.17,2.22-.51Z"/>
          <path class="cls-1" d="M100.15,148.33c.64-.07,1.05-.18,1.24-.34.19-.16.28-.56.28-1.21v-7.68c0-.61-.09-1.01-.28-1.2-.19-.19-.6-.3-1.24-.35v-.32h9.18l.06,2.47h-.44c-.15-.76-.37-1.25-.66-1.48-.29-.22-.94-.34-1.96-.34h-2.35c-.25,0-.41.04-.47.12-.06.08-.09.24-.09.46v3.86h2.67c.74,0,1.21-.11,1.41-.33.2-.22.37-.66.49-1.33h.4v3.99h-.4c-.13-.67-.3-1.11-.5-1.33-.2-.22-.67-.33-1.4-.33h-2.67v4.28c0,.34.11.55.32.61.22.06.87.09,1.95.09,1.17,0,2.04-.13,2.59-.38.56-.26,1.06-.88,1.5-1.86h.48l-.78,2.92h-9.34v-.32Z"/>
          <path class="cls-1" d="M116.76,137.22v.32c-.41-.01-.71.02-.91.09-.2.07-.3.23-.3.47,0,.07.02.17.05.27.03.11.11.25.23.43l2.54,3.73,2.48-3.79c.1-.16.17-.3.2-.4.03-.11.05-.19.05-.24,0-.25-.13-.41-.4-.49-.16-.05-.43-.08-.81-.08v-.32h3.78v.32c-.35.02-.66.12-.94.31-.43.3-.91.85-1.44,1.66l-2.55,3.9v3.36c0,.67.11,1.09.32,1.25.22.17.7.27,1.46.31v.32h-5.27v-.32c.78-.04,1.27-.16,1.46-.35.19-.19.28-.66.28-1.41v-3l-2.26-3.32c-.78-1.14-1.33-1.87-1.64-2.2-.32-.32-.7-.5-1.15-.52v-.32h4.83Z"/>
          <path class="cls-1" d="M127.31,138.5c1.06-1.02,2.37-1.53,3.92-1.53s2.87.51,3.93,1.54c1.15,1.11,1.73,2.58,1.73,4.43s-.6,3.36-1.79,4.47c-1.07.99-2.36,1.49-3.87,1.49-1.62,0-2.96-.55-4.03-1.65-1.09-1.12-1.63-2.56-1.63-4.31,0-1.84.58-3.32,1.74-4.44ZM128.6,146.97c.72.87,1.59,1.3,2.64,1.3s1.89-.42,2.61-1.27c.72-.85,1.08-2.2,1.08-4.06s-.37-3.25-1.1-4.08c-.73-.84-1.6-1.26-2.6-1.26s-1.91.43-2.63,1.3c-.72.87-1.08,2.21-1.08,4.04s.36,3.16,1.07,4.03Z"/>
          <path class="cls-1" d="M138.76,148.33c.71-.07,1.17-.23,1.38-.49.2-.25.3-.83.3-1.74v-7.61l-.24-.28c-.25-.3-.47-.48-.65-.55-.18-.07-.44-.11-.8-.12v-.32h2.95l6.67,8.27v-5.74c0-.94-.14-1.56-.42-1.84-.19-.18-.6-.3-1.23-.36v-.32h4.06v.32c-.66.07-1.1.23-1.32.48-.22.25-.33.83-.33,1.74v9.09h-.3l-7.64-9.47v6.72c0,.94.14,1.56.41,1.85.18.19.58.31,1.21.38v.32h-4.06v-.32Z"/>
          <path class="cls-1" d="M152.36,148.33c.63-.07,1.04-.18,1.23-.34.19-.16.29-.56.29-1.21v-7.68c0-.63-.09-1.03-.28-1.21-.19-.18-.6-.29-1.24-.34v-.32h4.66c1.57,0,2.9.26,3.98.78,1.96.93,2.94,2.59,2.94,4.98,0,.86-.18,1.68-.53,2.45-.35.78-.88,1.43-1.59,1.97-.45.34-.92.59-1.4.77-.88.33-1.97.49-3.26.49h-4.8v-.32ZM155.84,147.87c.14.09.42.14.86.14,1.35,0,2.46-.27,3.33-.8,1.34-.82,2.01-2.23,2.01-4.21,0-1.77-.55-3.11-1.65-4-.94-.76-2.2-1.15-3.75-1.15-.39,0-.65.04-.79.13-.14.08-.21.27-.21.56v8.79c0,.28.07.47.21.56Z"/>
          <path class="cls-1" d="M170.99,137.22h9.77l.09,2.94h-.41c-.2-.92-.46-1.52-.77-1.8-.31-.28-.97-.42-1.97-.42h-.96v8.84c0,.67.1,1.08.31,1.24.21.16.66.26,1.37.31v.32h-5.04v-.32c.73-.06,1.19-.18,1.37-.36.18-.18.27-.65.27-1.39v-8.64h-.97c-.96,0-1.61.14-1.95.41-.35.28-.61.88-.78,1.8h-.42l.1-2.94Z"/>
          <path class="cls-1" d="M184.19,138.5c1.06-1.02,2.37-1.53,3.92-1.53s2.87.51,3.93,1.54c1.15,1.11,1.73,2.58,1.73,4.43s-.6,3.36-1.79,4.47c-1.07.99-2.36,1.49-3.87,1.49-1.62,0-2.96-.55-4.03-1.65-1.09-1.12-1.63-2.56-1.63-4.31,0-1.84.58-3.32,1.74-4.44ZM185.48,146.97c.72.87,1.59,1.3,2.64,1.3s1.89-.42,2.61-1.27c.72-.85,1.09-2.2,1.09-4.06s-.37-3.25-1.1-4.08c-.73-.84-1.6-1.26-2.6-1.26s-1.91.43-2.63,1.3c-.72.87-1.08,2.21-1.08,4.04s.36,3.16,1.07,4.03Z"/>
          <path class="cls-1" d="M195.64,148.33c.71-.07,1.17-.23,1.38-.49.2-.25.3-.83.3-1.74v-7.01c0-.62-.1-1.03-.29-1.22-.2-.19-.64-.3-1.34-.33v-.32h3.41l3.97,8.61,3.87-8.61h3.43v.32c-.64.04-1.05.16-1.24.35-.19.19-.28.59-.28,1.2v7.68c0,.63.09,1.03.28,1.21.19.18.6.29,1.24.35v.32h-4.83v-.32c.7-.06,1.13-.18,1.3-.38.17-.19.26-.66.26-1.39v-7.75l-4.42,9.84h-.24l-4.35-9.43v6.89c0,.94.14,1.56.41,1.85.18.19.58.31,1.21.38v.32h-4.06v-.32Z"/>
          <path class="cls-1" d="M214.1,138.5c1.06-1.02,2.37-1.53,3.92-1.53s2.87.51,3.93,1.54c1.15,1.11,1.73,2.58,1.73,4.43s-.6,3.36-1.79,4.47c-1.07.99-2.36,1.49-3.87,1.49-1.62,0-2.96-.55-4.03-1.65-1.09-1.12-1.63-2.56-1.63-4.31,0-1.84.58-3.32,1.74-4.44ZM215.39,146.97c.72.87,1.59,1.3,2.63,1.3s1.89-.42,2.61-1.27c.72-.85,1.08-2.2,1.08-4.06s-.37-3.25-1.1-4.08c-.73-.84-1.6-1.26-2.6-1.26s-1.91.43-2.63,1.3c-.72.87-1.08,2.21-1.08,4.04s.36,3.16,1.07,4.03Z"/>
          <path class="cls-1" d="M225.55,148.33c.66-.06,1.08-.19,1.24-.39.16-.2.25-.65.25-1.37v-7.48c0-.61-.09-1-.27-1.19s-.59-.31-1.21-.36v-.32h4.78c1,0,1.83.13,2.49.38,1.26.48,1.89,1.36,1.89,2.64,0,.86-.28,1.52-.84,1.98-.56.46-1.32.76-2.28.91l3.56,4.38c.22.27.44.46.66.59.22.12.5.2.84.23v.32h-2.78l-4.32-5.32-.76.04v3.4c0,.64.1,1.04.29,1.21.19.17.62.28,1.27.34v.32h-4.8v-.32ZM231.46,142.34c.92-.38,1.38-1.08,1.38-2.12s-.41-1.68-1.23-2.05c-.44-.2-1.02-.29-1.75-.29-.49,0-.79.04-.9.11-.11.07-.16.23-.16.49v4.25c1.24-.04,2.13-.17,2.66-.39Z"/>
          <path class="cls-1" d="M238.11,148.33c.66-.06,1.08-.19,1.24-.39.16-.2.25-.65.25-1.37v-7.48c0-.61-.09-1-.27-1.19s-.59-.31-1.21-.36v-.32h4.78c1,0,1.83.13,2.49.38,1.26.48,1.89,1.36,1.89,2.64,0,.86-.28,1.52-.84,1.98-.56.46-1.32.76-2.28.91l3.56,4.38c.22.27.44.46.66.59.22.12.5.2.84.23v.32h-2.78l-4.32-5.32-.76.04v3.4c0,.64.1,1.04.29,1.21.19.17.62.28,1.27.34v.32h-4.8v-.32ZM244.02,142.34c.92-.38,1.38-1.08,1.38-2.12s-.41-1.68-1.23-2.05c-.44-.2-1.02-.29-1.75-.29-.49,0-.79.04-.9.11-.11.07-.16.23-.16.49v4.25c1.24-.04,2.13-.17,2.66-.39Z"/>
          <path class="cls-1" d="M252.73,138.5c1.06-1.02,2.37-1.53,3.92-1.53s2.87.51,3.93,1.54c1.15,1.11,1.73,2.58,1.73,4.43s-.6,3.36-1.79,4.47c-1.07.99-2.36,1.49-3.87,1.49-1.62,0-2.96-.55-4.03-1.65-1.09-1.12-1.63-2.56-1.63-4.31,0-1.84.58-3.32,1.74-4.44ZM254.02,146.97c.71.87,1.59,1.3,2.63,1.3s1.89-.42,2.61-1.27c.72-.85,1.09-2.2,1.09-4.06s-.37-3.25-1.1-4.08c-.73-.84-1.6-1.26-2.6-1.26s-1.91.43-2.63,1.3c-.72.87-1.08,2.21-1.08,4.04s.36,3.16,1.07,4.03Z"/>
          <path class="cls-1" d="M268.3,137.22v.32c-.34.01-.59.04-.73.09-.26.1-.39.27-.39.52,0,.11.01.22.05.33.03.11.08.25.14.41l2.5,6.5,1.83-4.84-.81-2.12c-.15-.38-.38-.64-.68-.77-.18-.08-.45-.12-.82-.13v-.32h4.63v.32c-.43,0-.73.04-.89.09-.26.1-.39.29-.39.59,0,.1.01.19.03.27.02.08.08.23.17.47l2.5,6.48,2.16-5.86c.12-.33.21-.63.25-.89.03-.15.04-.26.04-.35,0-.32-.15-.54-.46-.67-.17-.07-.42-.12-.76-.13v-.32h3.43v.32c-.31.04-.55.12-.71.21-.29.16-.51.44-.66.84l-1.81,5.15-.7,1.99-1.1,3.12h-.27l-.75-1.98-2-5.32-2.65,7.3h-.26l-1.29-3.58-1.46-4.05c-.6-1.67-1.02-2.69-1.26-3.07-.24-.38-.61-.58-1.12-.61v-.32h4.23Z"/>
        </g>
        <g>
          <path class="cls-1" d="M393.82,113.25V25.08h-16.52c-.44,0-.76.11-.98.32-.22.21-.33.53-.33.95v111.83c0,.42.11.73.33.95.22.21.54.32.98.32h2.62c3.27,0,6.32-.69,9.16-2.05,1.74-.84,2.97-1.63,3.68-2.37.71-.74,1.06-1.47,1.06-2.21v-19.56Z"/>
          <path class="cls-1" d="M433.34,25.39c-.22-.21-.55-.32-.98-.32h-33.3l9.08,3.92c4.47,1.93,7.37,6.34,7.37,11.21v73.04h-16.45l9.6,4.14c4.16,1.79,6.85,5.89,6.85,10.42v7.52c0,.42.11.73.33.95.22.21.54.32.98.32h2.45c2.51,0,5.29-.5,8.34-1.5,3.05-1,4.91-1.81,5.56-2.44.33-.42.49-.84.49-1.26V26.34c0-.42-.11-.73-.33-.95Z"/>
        </g>
        <g>
          <path class="cls-1" d="M147.17,72.45c.44-4.42.66-9.32.66-14.7V21.6h-10.94c-.3,0-.52.07-.66.22-.15.15-.22.37-.22.66v35.37c0,6.26-.3,11.83-.88,16.69-.59,4.86-1.73,9.8-3.43,14.81-3.24,10.1-9.69,18.83-19.34,26.2-.3.22-.44.48-.44.77,0,.22.05.39.17.5.11.11.64.57,1.6,1.38.15.15.31.22.5.22s.35-.04.5-.11c10.02-4.86,17.47-10.79,22.33-17.8,4.72-6.78,7.85-14.48,9.4-23.1l.77-4.97Z"/>
          <path class="cls-1" d="M181.88,21.82c-.15-.15-.37-.22-.66-.22h-26.11l8.67,2.87c3.81,1.26,6.38,4.82,6.38,8.83v13.51h-15.05l8.67,2.87c3.81,1.26,6.38,4.82,6.38,8.83v13.95h-15.05l8.67,2.87c3.81,1.26,6.38,4.82,6.38,8.83v18.81c0,.66-.11,1.07-.33,1.22l-.11.11c-.22.22-1,.33-2.32.33s-4.31-.17-8.95-.5c-4.64-.33-7.04-.5-7.19-.5s-.3.09-.44.28c-.15.18-.22.42-.22.72v1.66c0,.29.07.52.22.66.15.15.33.22.55.22,5.23.81,8.88,2.06,10.94,3.76,1.4,1.1,2.32,3.32,2.76,6.63,0,.22.07.42.22.61.15.18.29.28.44.28s.26-.04.33-.11c6.41-.59,10.68-1.95,12.82-4.09,2.14-2.14,3.21-5.53,3.21-10.17V22.48c0-.29-.07-.51-.22-.66Z"/>
        </g>
        <path class="cls-1" d="M217.14,102.18V25.25h-11.72c-.3,0-.52.07-.66.22-.15.15-.22.37-.22.66v90.53c0,.29.07.51.22.66s.37.22.66.22h1.88c2.36,0,4.53-.48,6.52-1.44,2.21-1.18,3.32-2.36,3.32-3.54v-10.39Z"/>
        <path class="cls-1" d="M275.28,25.47c-.15-.15-.37-.22-.66-.22h-52.68l34.99,4.3c3.16.39,5.53,3.07,5.53,6.25v27.26h-40.53l34.99,4.3c3.16.39,5.53,3.07,5.53,6.25v28.58h-40.53l34.99,4.3c3.16.39,5.53,3.07,5.53,6.25v3.16c0,.29.07.51.22.66.15.15.37.22.66.22h1.77c0,.07.04.11.11.11.88,0,2.95-.52,6.19-1.55,1.84-.74,3.06-1.4,3.65-1.99.29-.3.44-.63.44-.99V26.13c0-.29-.07-.52-.22-.66Z"/>
      </g>
    </g>
    <g>
      <path class="cls-1" d="M56.37,341.27v12.32c0,1.68-.33,2.5-1.36,2.96-.99.45-2.63.53-5.13.53-.12-.74-.53-1.97-.9-2.75,1.72.04,3.37.04,3.86.04.53-.04.74-.16.74-.74v-11.46l-4.76,1.56-.86-2.96c1.56-.41,3.49-.99,5.63-1.64v-8.38h-5.09v-2.83h5.09v-8.17h2.79v8.17h4.48v2.83h-4.48v7.51c1.35-.45,2.75-.9,4.15-1.36l.53,2.79-4.68,1.56ZM86.26,354.2c-.37.62-.82,1.93-.94,2.67h-7.14c-6.32,0-10.63-1.23-13.55-6.08-1.07,2.71-2.55,5.01-4.39,6.78-.41-.49-1.56-1.4-2.22-1.85,3.2-2.83,4.97-7.27,5.71-12.65l2.79.37c-.21,1.4-.45,2.71-.78,3.94,1.27,3.2,3.24,4.97,5.83,5.91v-10.76h-8.34v-2.46h8.34v-3.49h-10.68v-2.5h10.68v-3.04h-8.34v-2.46h8.34v-2.75h-10.14v-2.5h10.14v-3.61h2.83v3.61h10.76v2.5h-10.76v2.75h8.87v5.5h2.83v2.5h-2.83v5.95h-8.87v3.41h9.4v2.5h-9.4v5.5c1.23.16,2.5.25,3.9.25h7.97ZM74.39,334.08h6v-3.04h-6v3.04ZM74.39,340.08h6v-3.49h-6v3.49Z"/>
      <path class="cls-1" d="M102.68,339.63c-.66,3.57-1.72,7.43-3.08,10.35.78.49,1.68,1.23,3.12,2.05,2.87,1.77,6.61,2.05,11.46,2.05,5.3,0,11.91-.41,16.51-.86-.41.82-.86,2.26-.94,3.16-3.04.2-10.8.45-15.69.45-5.38,0-8.99-.45-11.99-2.26-1.64-.99-3.2-2.38-4.11-2.38s-2.3,2.59-3.49,5.17l-2.09-2.75c1.56-2.26,3.12-4.07,4.48-4.8,1.15-2.26,2.01-5.46,2.59-8.29h-5.38c1.15-2.42,2.55-5.91,3.7-9.16h-4.76v-2.75h8.66c-1.07,2.96-2.42,6.41-3.57,9.24h2.3l.45-.12,1.85.9ZM97.22,327.43c-.49-1.77-1.4-4.56-2.09-6.69l2.71-.78c.7,2.14,1.64,4.8,2.18,6.57l-2.79.9ZM106.38,328.54h-2.79v-7.39h25.46v7.39h-2.96v-4.97h-19.71v4.97ZM114.84,351.95v-3.41h-11.09v-2.34h11.09v-2.5h-8.95v-11.62h8.95v-2.46h-8.05v-2.3h8.05v-2.09h2.96v2.09h7.72v2.3h-7.72v2.46h9.07v11.62h-9.07v2.5h11.5v2.34h-11.5v3.41h-2.96ZM108.6,336.88h6.24v-2.71h-6.24v2.71ZM114.84,341.6v-2.71h-6.24v2.71h6.24ZM117.79,334.17v2.71h6.28v-2.71h-6.28ZM124.08,338.89h-6.28v2.71h6.28v-2.71Z"/>
      <path class="cls-1" d="M173.43,351.08v3.12h-35.31v-3.12h35.31ZM171.26,323.65v3.08h-30.8v-3.08h30.8ZM167.89,336.96v3.08h-24.84v-3.08h24.84Z"/>
      <path class="cls-1" d="M181.97,355.48c2.01-1.15,3.82-3.24,4.85-4.93l2.38,1.11c-1.19,1.81-2.83,3.86-4.8,5.17l-2.42-1.35ZM191.83,346.44v1.77h24.51s-.04.74-.08,1.07c-.37,4.19-.82,5.95-1.6,6.69-.57.53-1.27.78-2.22.82-.74.04-2.26.04-3.86-.08-.04-.58-.25-1.44-.62-2.05,1.44.16,2.75.16,3.28.16.49,0,.86-.04,1.11-.29.37-.41.7-1.64,1.03-4.43h-24.55v-16.34h8.54c.37-.74.74-1.52.99-2.18h-12.36v4.56h-2.83v-6.53h1.68c-.29-.62-.9-1.44-1.4-1.85,5.54-1.31,6.94-3.65,7.35-8.17h2.55c-.16,1.6-.41,3-.86,4.23,2.05.94,4.39,2.34,5.71,3.33l-1.4,1.81c-1.19-.99-3.28-2.34-5.26-3.28-1.27,1.81-3.28,3.04-6.53,3.94h32.27v6.53h-2.96v-4.56h-12.77c-.37.82-.82,1.52-1.27,2.18h11.33v9.07h-19.79v1.72h26.65v1.89h-26.65ZM186.45,325.01c-.62-.99-1.97-2.5-3.04-3.65l1.64-1.19c1.19,1.07,2.5,2.5,3.16,3.45l-1.77,1.4ZM191.83,335.6v1.81h16.84v-1.81h-16.84ZM208.66,341.02v-1.93h-16.84v1.93h16.84ZM194.62,351.17c.7,1.52,1.15,3.53,1.23,4.89l-2.63.49c-.04-1.36-.49-3.41-1.03-4.93l2.42-.45ZM199.42,321.15c-1.11,1.23-2.26,2.34-3.16,3.2l-1.6-.99c.86-.9,2.09-2.42,2.71-3.37l2.05,1.15ZM201.07,350.88c.86,1.36,1.72,3.12,2.05,4.31l-2.42.7c-.33-1.19-1.11-3.08-1.93-4.39l2.3-.62ZM203.24,324.64c-.53-.94-1.81-2.42-2.79-3.49l1.68-1.15c1.07.99,2.3,2.34,2.92,3.2l-1.81,1.44ZM214.54,329.4c-1.4-1.07-3.86-2.55-6.24-3.57-1.27,1.64-3.24,2.79-6.41,3.57-.25-.62-.9-1.52-1.4-1.97,5.46-1.19,6.77-3.33,7.1-7.84h2.59c-.12,1.77-.41,3.2-.9,4.48,2.46.99,5.17,2.5,6.73,3.61l-1.48,1.72ZM207.06,350.59c1.07.9,2.05,2.22,2.59,3.16l-2.22.99c-.45-.94-1.44-2.34-2.42-3.33l2.05-.82ZM216.96,321.23c-1.23,1.31-2.5,2.5-3.53,3.37l-1.52-1.03c.94-.99,2.3-2.59,3.04-3.57l2.01,1.23Z"/>
      <path class="cls-1" d="M237.41,344.6c-.08-.7-.25-1.52-.41-2.34-8.17,1.19-9.44,1.48-10.18,1.89-.16-.66-.66-2.09-.99-2.92.86-.21,1.77-1.19,3-2.71.62-.7,1.93-2.38,3.37-4.56-4.19.53-5.05.7-5.62.99-.16-.62-.66-2.01-.99-2.79.7-.16,1.4-.99,2.18-2.26.9-1.19,3.65-5.87,5.26-10.26l2.83,1.19c-1.77,3.82-3.98,7.8-6.2,10.84l4.27-.41c1.11-1.72,2.14-3.61,3.04-5.46l2.71,1.56c-2.63,4.72-5.87,9.48-9.16,13.26l5.91-.78c-.37-1.4-.78-2.79-1.23-4.07l2.34-.62c.99,2.83,2.05,6.53,2.38,8.7l-2.5.74ZM230.02,346.32c-.45,3.61-1.19,7.51-2.09,10.1-.53-.29-1.68-.66-2.34-.86.99-2.55,1.6-6.24,1.97-9.65l2.46.41ZM233.83,345.83c.45,2.79.9,6.36,1.03,8.75l-2.42.45c-.04-2.38-.45-6-.9-8.79l2.3-.41ZM237.49,344.84c.82,2.09,1.68,4.8,2.05,6.57l-2.26.74c-.33-1.81-1.19-4.6-1.93-6.69l2.13-.62ZM249.85,342.34c-1.48,6.2-5.05,10.59-9.2,12.93-.37-.66-1.19-1.68-1.77-2.18,3.12-1.56,6.04-4.76,7.51-8.75h-5.3v-2.55h6.49l.49-.12,1.77.66ZM262.5,341.68c-1.85,1.68-3.94,3.57-5.75,4.93,1.77,2.79,4.07,5.05,6.69,6.41-.66.53-1.52,1.64-2.01,2.42-3.24-2.01-5.83-5.34-7.76-9.32v7.72c0,1.56-.33,2.38-1.44,2.87-1.07.49-2.79.53-5.42.53-.16-.86-.49-2.01-.9-2.83,1.93.08,3.65.08,4.15.04.53-.04.7-.16.7-.66v-15.4h-8.17v-14.37h6.28c.58-1.4,1.11-3.08,1.4-4.35l3.41.7c-.58,1.23-1.19,2.54-1.72,3.65h9.24v14.37h-7.51v1.48c.49,1.64,1.11,3.2,1.93,4.72,1.6-1.48,3.49-3.37,4.6-4.76l2.3,1.85ZM245.46,330.02h12.77v-3.57h-12.77v3.57ZM245.46,335.97h12.77v-3.65h-12.77v3.65Z"/>
      <path class="cls-1" d="M269.52,350.47l1.89-2.46c1.77,1.85,4.06,3.45,7.47,3.45s6.12-2.13,6.12-5.58-2.42-6.04-9.36-6.04v-2.88c6.2,0,8.34-2.5,8.34-5.75,0-2.92-1.97-4.76-5.09-4.85-2.42.08-4.56,1.31-6.24,3l-2.01-2.38c2.26-2.09,4.93-3.61,8.42-3.61,5.05,0,8.75,2.71,8.75,7.56,0,3.65-2.18,6.08-5.38,7.27v.16c3.57.82,6.41,3.53,6.41,7.64,0,5.38-4.31,8.58-9.65,8.58-4.72,0-7.68-1.97-9.65-4.11Z"/>
      <path class="cls-1" d="M295.55,350.59l1.85-2.46c1.72,1.72,3.9,3.33,7.39,3.33s6.41-2.71,6.41-7.1-2.46-6.86-6.24-6.86c-2.01,0-3.29.62-5.01,1.77l-2.01-1.23.94-14.08h14.66v3.2h-11.37l-.74,8.71c1.31-.74,2.67-1.19,4.48-1.19,5.01,0,9.07,2.96,9.07,9.57s-4.76,10.35-9.85,10.35c-4.68,0-7.55-1.97-9.57-3.98Z"/>
      <path class="cls-1" d="M322.49,338.89c0-10.47,3.65-15.52,9.4-15.52s9.36,5.09,9.36,15.52-3.65,15.69-9.36,15.69-9.4-5.21-9.4-15.69ZM337.6,338.89c0-8.79-2.3-12.48-5.71-12.48s-5.75,3.7-5.75,12.48,2.3,12.69,5.75,12.69,5.71-3.82,5.71-12.69Z"/>
      <path class="cls-1" d="M363.3,341.64c-2.87,6.04-7.97,12.15-12.65,15.44-.49-.78-1.52-1.85-2.26-2.46,4.6-2.83,9.65-8.54,12.24-13.96l2.67.99ZM368.6,338.44v18.77h-3.16v-18.77h-16.34v-3h16.34v-15.69h3.16v15.69h16.42v3h-16.42ZM357.06,332.89c-.9-2.55-3.24-6.61-5.58-9.61l2.75-1.15c2.3,2.87,4.8,6.82,5.79,9.44l-2.96,1.31ZM373.07,340.57c4.85,4.43,10.31,10.59,12.65,14.74l-2.59,1.77c-2.26-4.19-7.56-10.51-12.44-15.03l2.38-1.48ZM383.13,323.08c-1.97,3.45-4.6,7.55-6.65,10.14l-2.63-1.19c2.05-2.71,4.6-7.1,6-10.27l3.29,1.31Z"/>
      <path class="cls-1" d="M59.34,403.58h6.69v-22.46h-5.34v-2.38c2.67-.49,4.6-1.19,6.24-2.13h2.87v26.98h6.04v3.12h-16.51v-3.12Z"/>
      <path class="cls-1" d="M86.24,401.81c1.27,1.44,3.12,2.3,5.05,2.3,3.9,0,7.27-3.2,7.56-12.56-1.81,2.26-4.39,3.74-6.94,3.74-5.01,0-8.29-3.24-8.29-9.49,0-5.83,3.94-9.77,8.62-9.77,5.79,0,10.1,4.76,10.1,14.33,0,12.2-5.26,16.88-10.92,16.88-3.24,0-5.54-1.31-7.23-3.08l2.05-2.34ZM98.8,388.47c-.41-6.2-2.71-9.49-6.57-9.49-2.87,0-5.09,2.71-5.09,6.82s1.81,6.69,5.38,6.69c2.01,0,4.27-1.15,6.28-4.02Z"/>
      <path class="cls-1" d="M109.73,399.23c0-4.02,2.79-6.82,5.54-8.29v-.21c-2.22-1.52-4.06-3.78-4.06-6.94,0-4.6,3.53-7.64,8.25-7.64,5.13,0,8.25,3.29,8.25,7.92,0,3.16-2.22,5.87-4.02,7.27v.21c2.63,1.52,5.09,3.78,5.09,7.88,0,4.39-3.78,7.8-9.44,7.8s-9.61-3.37-9.61-8.01ZM125.21,399.35c0-4.02-3.7-5.54-7.97-7.27-2.42,1.56-4.11,3.94-4.11,6.82,0,3.2,2.67,5.54,6.28,5.54s5.79-2.09,5.79-5.09ZM124.51,384.28c0-2.96-1.89-5.38-5.13-5.38-2.75,0-4.76,1.97-4.76,4.89,0,3.61,3.24,5.17,6.78,6.57,2.05-1.81,3.12-3.86,3.12-6.08Z"/>
      <path class="cls-1" d="M135.1,403.25l1.85-2.46c1.72,1.72,3.9,3.33,7.39,3.33s6.41-2.71,6.41-7.1-2.46-6.86-6.24-6.86c-2.01,0-3.28.62-5.01,1.77l-2.01-1.23.94-14.08h14.66v3.2h-11.37l-.74,8.71c1.31-.74,2.67-1.19,4.48-1.19,5.01,0,9.07,2.96,9.07,9.57s-4.76,10.35-9.86,10.35c-4.68,0-7.56-1.97-9.57-3.98Z"/>
      <path class="cls-1" d="M173.95,395.94l.45,2.67c-4.02,1.72-8.34,3.49-11.66,4.84l-1.11-3.08c1.44-.45,3.2-1.07,5.13-1.81v-13.51h-4.52v-2.92h4.52v-9.32h2.83v9.32h3.94v2.92h-3.94v12.48l4.35-1.6ZM199.28,395.28h-11.21v14.54h-3v-14.54h-11.17v-2.92h11.17v-15.03h-9.98v-2.91h23.08v2.91h-10.1v15.03h11.21v2.92ZM179.12,379.68c1.15,3.16,2.13,7.31,2.46,10.02l-2.63.7c-.25-2.71-1.19-6.9-2.3-10.1l2.46-.62ZM191.15,389.74c1.03-2.71,2.26-7.23,2.87-10.31l2.87.66c-1.03,3.49-2.3,7.72-3.41,10.31l-2.34-.66Z"/>
      <path class="cls-1" d="M216.03,372.37h2.92v37.49h-2.92v-14.45h-3.94v1.03c0,3.57-.53,9.36-3.49,13.43-.49-.49-1.6-1.27-2.34-1.64,2.63-3.65,3.04-8.75,3.04-11.91v-.9h-2.92v-2.75h9.65v-6.12h-8.01v-12.44h2.83v9.65h5.17v-11.37ZM233.53,388.76v16.83h9.12v2.92h-21.23v-2.92h9.08v-16.83h-10.06v-2.96h10.06v-13.39h3.04v13.39h9.81v2.96h-9.81Z"/>
      <path class="cls-1" d="M255.37,386.83v23.04h-2.92v-35.68h15.03v12.65h-12.11ZM255.37,376.4v3h9.2v-3h-9.2ZM264.57,384.57v-3.12h-9.2v3.12h9.2ZM261.45,398.04c-.95-1.03-2.88-2.42-4.56-3.2l1.56-1.52c1.72.74,3.7,2.01,4.64,3.04l-1.64,1.68ZM257.79,406.62c1.48-1.85,3.53-4.85,5.21-7.56l1.6,1.77c-1.44,2.5-3.24,5.34-4.93,7.72l-1.89-1.93ZM260.18,387.65c1.64.78,3.45,2.05,4.31,3.12l-1.64,1.6c-.82-1.07-2.67-2.42-4.27-3.24l1.6-1.48ZM286.33,405.92c0,1.72-.33,2.67-1.48,3.2-1.07.49-2.83.57-5.54.57-.08-.57-.33-1.44-.62-2.18h-9.85v1.35h-2.46v-9.77h4.89v-2.83h-6.73v-2.22h6.73v-2.79c-1.81.25-3.65.41-5.34.53-.12-.53-.45-1.4-.74-1.97,4.39-.41,9.65-1.15,12.65-2.05l1.72,1.93c-1.6.49-3.61.86-5.71,1.19v3.16h7.02v2.22h-7.02v2.83h4.97v7.56c1.72.08,3.33.04,3.82.04.53-.04.74-.21.74-.82v-19.05h-12.44v-12.65h15.4v31.74ZM276.35,401.24h-7.51v4.15h7.51v-4.15ZM273.85,376.4v3h9.53v-3h-9.53ZM283.38,384.57v-3.12h-9.53v3.12h9.53Z"/>
      <path class="cls-1" d="M323.41,394.55c2.3,2.71,5.79,5.09,9.24,6.32-.7.58-1.56,1.64-2.01,2.34-3.98-1.64-7.97-5.05-10.43-8.66h-12.85c-2.59,3.82-6.73,7.35-10.72,9.2-.45-.74-1.27-1.77-1.97-2.34,3.41-1.36,6.94-3.94,9.28-6.86h-8.87v-2.59h8.13v-13.1h-6.24v-2.55h6.24v-3.94h3v3.94h14.91v-3.94h3.08v3.94h6.16v2.55h-6.16v13.1h7.92v2.59h-8.71ZM315.03,406.12h14.17v2.59h-30.96v-2.59h13.76v-4.31h-8.38v-2.5h8.38v-3.45h3.04v3.45h8.58v2.5h-8.58v4.31ZM306.21,378.86v2.75h14.91v-2.75h-14.91ZM306.21,386.74h14.91v-2.83h-14.91v2.83ZM306.21,391.96h14.91v-2.92h-14.91v2.92Z"/>
      <path class="cls-1" d="M347.47,396.56c1.48-.66,3-1.27,4.52-1.93l.62,2.71c-4.31,2.01-8.91,4.07-12.48,5.67l-1.19-3.04c1.56-.53,3.53-1.35,5.67-2.26v-12.65h-4.93v-2.92h4.93v-9.32h2.87v9.32h4.44v2.92h-4.44v11.5ZM371.04,406.17c2.38,0,2.79-1.11,3.08-5.83.74.53,1.89,1.03,2.75,1.15-.49,5.62-1.44,7.43-5.71,7.43h-10.1c-4.64,0-6.04-1.11-6.04-5.54v-12.89l-3.24,1.36-1.19-2.67,4.43-1.85v-11.17h2.92v9.9l5.5-2.3v-11.42h2.91v10.18l6.24-2.63,2.34.78-.16.49c-.41,5.79-1.11,13.34-2.14,17.98l-2.5-.74c.7-3.74,1.23-9.81,1.56-14.99l-5.34,2.26v15.07h-2.91v-13.84l-5.5,2.34v14.17c0,2.22.53,2.75,3.2,2.75h9.9Z"/>
    </g>
    <g>
      <path class="cls-1" d="M373.44,249l5.9-2.04.93,4.96c-3.5,1.52-9.21,3.82-17.11,6.89l-2.04-5.61c.74-.23,1.95-.63,3.62-1.2,1.67-.56,2.88-.96,3.62-1.2v-18.74h-6.19v-5.26h6.19v-13.37h5.08v13.37h5.43v5.26h-5.43v16.93ZM416.36,241.93v5.25h-15.71v20.38h-5.61v-20.38h-15.65v-5.25h15.65v-21.02h-13.96v-5.31h33.69v5.31h-14.13v21.02h15.71ZM382.9,225l4.38-1.17c1.79,4.87,2.94,9.63,3.45,14.31l-4.67,1.23c-.39-4.4-1.44-9.19-3.15-14.36ZM408.71,239.19l-4.26-1.05c1.75-4.9,3-9.79,3.74-14.66l5.26,1.17c-2.26,7.55-3.84,12.4-4.73,14.54Z"/>
      <g>
        <path class="cls-1" d="M149.63,257.01c1.39-1.24,2.93-2.59,4.6-4.06,1.68-1.47,3.37-3,5.07-4.6,1.5-1.39,3.14-2.97,4.95-4.72,1.8-1.75,3.49-3.62,5.07-5.61,1.57-1.98,2.89-4.06,3.95-6.23,1.06-2.17,1.59-4.33,1.59-6.5,0-1.24-.27-2.38-.81-3.44-.54-1.06-1.28-1.97-2.2-2.75-.93-.77-2.03-1.37-3.29-1.78-1.26-.41-2.62-.62-4.06-.62-2.42,0-4.72.38-6.89,1.12-2.17.75-4,1.54-5.49,2.36l-.77-6.65c2.27-.98,4.58-1.75,6.92-2.32,2.35-.57,4.76-.85,7.23-.85s4.71.32,6.85.97c2.14.65,4,1.61,5.57,2.9,1.57,1.29,2.82,2.9,3.75,4.84.93,1.93,1.39,4.17,1.39,6.69,0,2.27-.53,4.54-1.59,6.81-1.06,2.27-2.39,4.46-3.98,6.58-1.6,2.12-3.3,4.13-5.11,6.03-1.81,1.91-3.46,3.61-4.95,5.11-1.5,1.5-3.12,3.02-4.87,4.56-1.75,1.55-3.3,2.91-4.64,4.1h25.92v6.34h-34.19v-8.28Z"/>
        <path class="cls-1" d="M225.75,217.63h-22.43l-.46,14.47c.72-.21,1.68-.39,2.86-.54,1.19-.16,2.55-.23,4.1-.23,2.37,0,4.61.43,6.73,1.28,2.11.85,3.97,2.01,5.57,3.48,1.6,1.47,2.86,3.24,3.79,5.3.93,2.06,1.39,4.28,1.39,6.65,0,2.94-.55,5.54-1.66,7.81-1.11,2.27-2.61,4.18-4.49,5.72-1.88,1.55-4.08,2.71-6.58,3.48-2.5.77-5.14,1.16-7.93,1.16-2.94,0-5.36-.21-7.27-.62-1.91-.41-3.35-.8-4.33-1.16l.23-7.27c1.65.93,3.34,1.61,5.07,2.05,1.73.44,3.78.66,6.15.66,1.6,0,3.16-.23,4.68-.7,1.52-.46,2.86-1.15,4.02-2.05,1.16-.9,2.1-2.02,2.82-3.37.72-1.34,1.08-2.86,1.08-4.56,0-1.91-.34-3.58-1.01-5.03-.67-1.44-1.6-2.66-2.78-3.64-1.19-.98-2.58-1.7-4.18-2.17-1.6-.46-3.3-.7-5.11-.7-2.32,0-4.28.18-5.88.54-1.6.36-3.12.85-4.56,1.47l.46-28.39h29.71v6.34Z"/>
        <path class="cls-1" d="M234.73,241.53h19.88v5.88h-19.88v-5.88Z"/>
        <path class="cls-1" d="M290.35,252.98h-25.14v-6.34l21.82-35.35h11.06v35.35h6.81v6.34h-6.81v12.3h-7.74v-12.3ZM290.35,217.63h-.15l-16.86,29.01h17.02v-29.01Z"/>
        <path class="cls-1" d="M309.92,238.28c0-2.94.26-6.06.77-9.36.51-3.3,1.44-6.32,2.79-9.05,1.34-2.73,3.21-5,5.61-6.81,2.4-1.8,5.45-2.71,9.17-2.71s6.77.9,9.17,2.71c2.4,1.81,4.27,4.07,5.61,6.81,1.34,2.73,2.27,5.75,2.79,9.05.52,3.3.77,6.42.77,9.36s-.26,6.06-.77,9.36c-.52,3.3-1.44,6.32-2.79,9.05-1.34,2.73-3.21,5-5.61,6.81-2.4,1.8-5.45,2.71-9.17,2.71s-6.77-.9-9.17-2.71c-2.4-1.8-4.27-4.07-5.61-6.81-1.34-2.73-2.27-5.75-2.79-9.05-.52-3.3-.77-6.42-.77-9.36ZM318.12,238.28c0,1.14.04,2.45.12,3.95.08,1.5.23,3.04.46,4.64.23,1.6.57,3.17,1.01,4.72.44,1.55,1.03,2.94,1.78,4.18.75,1.24,1.67,2.23,2.79,2.98,1.11.75,2.44,1.12,3.98,1.12s2.88-.37,3.98-1.12c1.11-.75,2.04-1.74,2.79-2.98.75-1.24,1.34-2.63,1.78-4.18.44-1.55.77-3.12,1-4.72.23-1.6.39-3.15.46-4.64.08-1.5.12-2.81.12-3.95,0-1.7-.12-3.78-.35-6.23-.23-2.45-.7-4.82-1.39-7.12-.7-2.29-1.71-4.24-3.06-5.84-1.34-1.6-3.12-2.4-5.34-2.4s-4,.8-5.34,2.4c-1.34,1.6-2.36,3.55-3.06,5.84-.7,2.3-1.16,4.67-1.39,7.12-.23,2.45-.35,4.53-.35,6.23Z"/>
      </g>
      <g>
        <path class="cls-1" d="M45.62,216.99h23.24v4.85H17.3v-4.85h22.66v-5.37h5.66v5.37ZM66.88,240.41v19.85c0,1.44-.2,2.57-.58,3.39-.39.82-1.09,1.44-2.1,1.87-1.6.62-4.87.93-9.81.93-.2-1.44-.78-3.15-1.75-5.14h-16v2.86h-4.85v-15.77h22.66v12.91c3.07.08,4.94.06,5.61-.06.82,0,1.23-.35,1.23-1.05v-15.12H25.25v21.49h-5.43v-26.16h47.06ZM27.06,224.7h32.12v12.5H27.06v-12.5ZM53.57,233.4v-4.85h-21.14v4.85h21.14ZM49.48,257.4v-5.08h-12.85v5.08h12.85Z"/>
        <path class="cls-1" d="M77.8,225.98v-4.44h23.88v4.44h-23.88ZM99.23,245.72v17.58h-13.84v2.51h-4.9v-20.09h18.74ZM80.6,233.98v-4.32h18.8v4.32h-18.8ZM80.6,241.98v-4.38h18.8v4.38h-18.8ZM99.46,213.66v4.32h-18.51v-4.32h18.51ZM94.26,250.16h-8.88v8.64h8.88v-8.64ZM132.86,216.64v5.37h-10.86v37.66c0,1.67-.22,2.97-.67,3.88-.45.91-1.24,1.61-2.37,2.07-1.63.62-5.28.93-10.92.93-.12-1.17-.74-3.06-1.87-5.66,2.53.08,5.43.12,8.7.12.97-.04,1.46-.51,1.46-1.4v-37.6h-13.84v-5.37h30.36Z"/>
      </g>
    </g>
    <g>
      <line class="cls-2" x1="417.18" y1="308.37" x2="417.18" y2="421.07"/>
      <line class="cls-2" x1="16.49" y1="421.07" x2="16.49" y2="308.37"/>
    </g>
  </g>
</svg>