<?xml version="1.0" encoding="UTF-8"?>
<svg id="_圖層_2" data-name="圖層 2" xmlns="http://www.w3.org/2000/svg" viewBox="0 0 138.88 452.89">
  <defs>
    <style>
      .cls-1 {
        fill: #fff;
      }

      .cls-2 {
        opacity: .42;
      }
    </style>
  </defs>
  <g id="_圖層_1-2" data-name="圖層 1">
    <g class="cls-2">
      <g>
        <path class="cls-1" d="M112.46.36v4.1h25.24V.36h.52v6.46c0,.37,0,.74.02,1.13.01.38.03.77.06,1.16,0,.39,0,.77.02,1.14.01.37.02.73.02,1.07,0,1.8-.22,3.27-.65,4.43-.43,1.16-.96,2.07-1.59,2.73-.63.66-1.3,1.12-2.03,1.37-.73.25-1.38.37-1.97.37-.81,0-1.56-.18-2.25-.54-.69-.36-1.29-.84-1.81-1.44-.52-.6-.93-1.3-1.25-2.08-.32-.79-.53-1.61-.63-2.47h-.07c-.07.89-.26,1.79-.57,2.71-.31.92-.74,1.76-1.29,2.51-.55.75-1.24,1.36-2.05,1.83-.81.47-1.75.7-2.8.7s-2.12-.21-3.04-.63c-.92-.42-1.72-1.05-2.38-1.88-.66-.84-1.19-1.89-1.57-3.17-.38-1.28-.57-2.77-.57-4.46,0-.34,0-.68.02-1.01.01-.33.03-.68.05-1.05.03-.37.04-.75.06-1.14.01-.39.02-.81.02-1.25V.36h.52ZM112.46,8.15c-.02.3-.06.62-.09.98-.04.36-.06.87-.06,1.53,0,1.16.11,2.15.33,2.97.22.82.61,1.5,1.16,2.03.55.53,1.29.92,2.2,1.16.91.25,2.05.37,3.43.37,1.97,0,3.52-.42,4.65-1.25,1.13-.84,1.7-2.08,1.7-3.73v-4.06h-13.32ZM126.3,8.15v3.39c0,.69.08,1.32.26,1.88.17.57.47,1.05.9,1.46.43.41,1.01.72,1.75.94.74.22,1.67.33,2.8.33,1.28,0,2.31-.17,3.08-.5.78-.33,1.36-.76,1.75-1.29.39-.53.65-1.12.78-1.77.12-.65.18-1.3.18-1.94,0-.44,0-.89-.02-1.35-.01-.46-.04-.84-.09-1.16h-11.4Z"/>
        <path class="cls-1" d="M112.46,27.93v4.1h25.24v-4.1h.52v21.11h-6.38v-.41c.96-.32,1.8-.66,2.53-1.03.72-.37,1.34-.81,1.84-1.33.5-.52.88-1.13,1.12-1.85.25-.71.37-1.57.37-2.58v-6.12h-11.4v2.4c0,.81.07,1.5.22,2.07.15.57.42,1.05.83,1.46.41.41.96.75,1.66,1.03.7.28,1.6.56,2.71.83v.41h-11.48v-.41c.71-.17,1.4-.35,2.07-.54.66-.18,1.25-.44,1.77-.77s.93-.77,1.24-1.33c.31-.55.46-1.27.46-2.16v-2.99h-13.32v6.97c0,1.35.29,2.48.87,3.38.58.9,1.27,1.63,2.07,2.2.8.57,1.63.98,2.49,1.25.86.27,1.57.44,2.14.52v.41h-8.08v-22.51h.52Z"/>
        <path class="cls-1" d="M112.46,63.24v4.1h10.59l14.65-8.3v-3.36h.52v11.29h-.52v-3.69l-12.99,7.38,12.99,6.97v-3.73h.52v7.9h-.52v-3.58l-13.47-7.2h-11.77v4.1h-.52v-11.88h.52Z"/>
        <path class="cls-1" d="M125.12,86.52c1.97,0,3.79.39,5.46,1.16,1.67.77,3.12,1.77,4.35,2.99,1.23,1.22,2.2,2.59,2.9,4.11.7,1.52,1.05,3.05,1.05,4.58,0,1.62-.35,3.2-1.05,4.74-.7,1.54-1.67,2.91-2.9,4.11-1.23,1.21-2.68,2.17-4.35,2.9-1.67.73-3.49,1.09-5.46,1.09-1.72,0-3.41-.33-5.05-1-1.65-.66-3.11-1.57-4.39-2.73-1.28-1.16-2.31-2.52-3.1-4.08-.79-1.56-1.18-3.24-1.18-5.04s.38-3.55,1.14-5.13c.76-1.57,1.78-2.93,3.04-4.08,1.27-1.14,2.73-2.04,4.39-2.68,1.66-.64,3.38-.96,5.15-.96ZM125.12,90.77c-2.21,0-4.15.15-5.79.44-1.65.3-3.03.79-4.13,1.48-1.11.69-1.93,1.57-2.47,2.66s-.81,2.42-.81,4.02.27,2.91.81,4c.54,1.09,1.37,1.99,2.47,2.68,1.11.69,2.48,1.18,4.13,1.48,1.65.29,3.58.44,5.79.44,1.7,0,3.34-.11,4.93-.33,1.59-.22,3-.65,4.24-1.27,1.24-.63,2.23-1.5,2.97-2.62.74-1.12,1.11-2.58,1.11-4.37s-.37-3.25-1.11-4.37c-.74-1.12-1.73-1.99-2.97-2.62-1.24-.63-2.66-1.05-4.24-1.27-1.59-.22-3.23-.33-4.93-.33Z"/>
        <path class="cls-1" d="M112.46,118.44v4.1h25.24v-4.1h.52v7.9l-20.11,12.47v.07h19.59v-4.1h.52v8.75h-.52v-4.1h-26.27v-.74l24.76-15.53v-.07h-23.73v4.1h-.52v-8.75h.52Z"/>
        <path class="cls-1" d="M112.46,148.37v4.1h25.24v-4.1h.52v6.86c0,.34,0,.69.02,1.03.01.34.03.69.06,1.03,0,.34,0,.69.02,1.03.01.34.02.69.02,1.03,0,.74-.01,1.4-.04,1.97-.03.58-.07,1.12-.13,1.62-.06.5-.15.98-.26,1.44-.11.45-.25.94-.42,1.46-.49,1.5-1.15,2.8-1.97,3.89-.82,1.09-1.78,1.99-2.86,2.69-1.08.7-2.26,1.22-3.54,1.55s-2.62.5-4.02.5c-1.62,0-3.08-.2-4.37-.59-1.29-.39-2.44-.94-3.43-1.62-1-.69-1.86-1.49-2.58-2.42-.73-.92-1.31-1.91-1.75-2.97-.27-.59-.48-1.15-.63-1.68-.15-.53-.26-1.07-.33-1.62-.07-.55-.12-1.16-.15-1.83-.02-.66-.04-1.43-.04-2.29,0-.37,0-.76.02-1.18.01-.42.03-.84.05-1.25.03-.42.04-.83.06-1.24.01-.41.02-.79.02-1.16v-6.27h.52ZM112.46,156.15c-.05.42-.09.9-.11,1.46-.03.55-.04,1.16-.04,1.83,0,.84.04,1.67.13,2.49.09.82.27,1.61.55,2.36.28.75.69,1.45,1.22,2.1.53.65,1.22,1.24,2.09,1.75,1.33.79,2.69,1.33,4.08,1.64,1.39.31,2.91.46,4.56.46,1.94,0,3.71-.18,5.3-.55,1.59-.37,2.94-.98,4.06-1.83,1.12-.85,1.99-1.97,2.6-3.38.61-1.4.92-3.14.92-5.2,0-.62-.01-1.17-.04-1.68-.03-.5-.05-.99-.07-1.46h-25.24Z"/>
        <path class="cls-1" d="M112.46,196.85v4.1h25.24v-2.14c0-.49-.04-1.05-.13-1.66-.09-.62-.33-1.24-.72-1.86-.39-.63-1.01-1.23-1.86-1.81-.85-.58-2.02-1.08-3.52-1.49v-.41h6.75v22.44h-6.75v-.41c1.5-.42,2.68-.92,3.52-1.49.85-.58,1.47-1.18,1.86-1.81.39-.63.63-1.25.72-1.86.09-.62.13-1.17.13-1.66v-2.14h-25.24v4.1h-.52v-11.88h.52Z"/>
        <path class="cls-1" d="M125.12,220.51c1.97,0,3.79.39,5.46,1.16,1.67.77,3.12,1.77,4.35,2.99,1.23,1.22,2.2,2.59,2.9,4.11.7,1.52,1.05,3.05,1.05,4.58,0,1.62-.35,3.2-1.05,4.74-.7,1.54-1.67,2.91-2.9,4.11-1.23,1.2-2.68,2.17-4.35,2.9-1.67.73-3.49,1.09-5.46,1.09-1.72,0-3.41-.33-5.05-1-1.65-.66-3.11-1.57-4.39-2.73-1.28-1.16-2.31-2.52-3.1-4.08-.79-1.56-1.18-3.24-1.18-5.04s.38-3.55,1.14-5.13c.76-1.57,1.78-2.93,3.04-4.08,1.27-1.14,2.73-2.04,4.39-2.68,1.66-.64,3.38-.96,5.15-.96ZM125.12,224.75c-2.21,0-4.15.15-5.79.44-1.65.3-3.03.79-4.13,1.48-1.11.69-1.93,1.57-2.47,2.66-.54,1.08-.81,2.42-.81,4.02s.27,2.91.81,4c.54,1.09,1.37,1.99,2.47,2.68,1.11.69,2.48,1.18,4.13,1.48,1.65.29,3.58.44,5.79.44,1.7,0,3.34-.11,4.93-.33,1.59-.22,3-.65,4.24-1.27,1.24-.63,2.23-1.5,2.97-2.62.74-1.12,1.11-2.58,1.11-4.37s-.37-3.25-1.11-4.37c-.74-1.12-1.73-1.99-2.97-2.62-1.24-.63-2.66-1.05-4.24-1.27-1.59-.22-3.23-.33-4.93-.33Z"/>
        <path class="cls-1" d="M112.46,252.61v4.1h25.24v-4.1h.52v8.3l-19.85,6.83v.07l19.85,6.83v8.15h-.52v-4.1h-25.24v4.1h-.52v-11.88h.52v4.1h25.02v-.07l-25.57-8.82,25.31-8.78v-.07h-24.76v4.1h-.52v-8.75h.52Z"/>
        <path class="cls-1" d="M125.12,289.21c1.97,0,3.79.39,5.46,1.16,1.67.77,3.12,1.77,4.35,2.99,1.23,1.22,2.2,2.59,2.9,4.11.7,1.52,1.05,3.05,1.05,4.58,0,1.62-.35,3.2-1.05,4.74-.7,1.54-1.67,2.91-2.9,4.11-1.23,1.21-2.68,2.17-4.35,2.9-1.67.73-3.49,1.09-5.46,1.09-1.72,0-3.41-.33-5.05-1-1.65-.66-3.11-1.57-4.39-2.73-1.28-1.16-2.31-2.52-3.1-4.08-.79-1.56-1.18-3.24-1.18-5.04s.38-3.55,1.14-5.13c.76-1.57,1.78-2.93,3.04-4.08,1.27-1.14,2.73-2.04,4.39-2.68,1.66-.64,3.38-.96,5.15-.96ZM125.12,293.46c-2.21,0-4.15.15-5.79.44-1.65.3-3.03.79-4.13,1.48-1.11.69-1.93,1.57-2.47,2.66s-.81,2.42-.81,4.02.27,2.91.81,4c.54,1.09,1.37,1.99,2.47,2.68,1.11.69,2.48,1.18,4.13,1.48,1.65.3,3.58.44,5.79.44,1.7,0,3.34-.11,4.93-.33,1.59-.22,3-.65,4.24-1.27,1.24-.63,2.23-1.5,2.97-2.62.74-1.12,1.11-2.58,1.11-4.37s-.37-3.25-1.11-4.37c-.74-1.12-1.73-1.99-2.97-2.62-1.24-.63-2.66-1.05-4.24-1.27-1.59-.22-3.23-.33-4.93-.33Z"/>
        <path class="cls-1" d="M112.46,321.46v4.1h25.24v-4.1h.52v7.01c0,.29,0,.59.02.89.01.3.03.59.06.89,0,.3,0,.59.02.89.01.29.02.59.02.89,0,1.45-.08,2.73-.24,3.84-.16,1.11-.62,2.14-1.38,3.1-.66.86-1.41,1.47-2.25,1.83-.84.36-1.62.54-2.36.54-.37,0-.84-.07-1.42-.2-.58-.14-1.17-.43-1.77-.89-.6-.46-1.16-1.11-1.66-1.97-.5-.86-.84-2.01-1.01-3.43h-.07c-.05.39-.14.93-.28,1.6-.14.68-.36,1.37-.68,2.07-.32.7-.74,1.35-1.27,1.94-.53.59-1.21,1.01-2.05,1.25-.49.15-1.05.25-1.68.31-.63.06-1.27.11-1.94.15-.66.04-1.3.07-1.92.11-.61.04-1.13.1-1.55.2-.64.15-1.22.38-1.73.7-.52.32-.78.84-.78,1.55,0,.32.06.65.18,1,.12.34.32.65.59.92l-.41.33c-.1-.12-.2-.26-.31-.42-.11-.16-.22-.36-.31-.61-.1-.25-.18-.55-.24-.9-.06-.36-.09-.79-.09-1.31,0-.98.12-1.8.37-2.45.25-.65.61-1.18,1.09-1.57.48-.39,1.07-.68,1.77-.87.7-.18,1.52-.31,2.45-.39l3.36-.26c1.23-.1,2.19-.34,2.88-.74.69-.39,1.19-.85,1.51-1.38.32-.53.51-1.08.57-1.64s.09-1.06.09-1.48v-3.69h-13.32v4.1h-.52v-11.88h.52ZM126.3,329.25v3.39c0,.69.08,1.32.26,1.88.17.57.47,1.05.9,1.46.43.41,1.01.72,1.75.94.74.22,1.67.33,2.8.33,1.28,0,2.31-.17,3.08-.5.78-.33,1.36-.76,1.75-1.29.39-.53.65-1.12.78-1.77.12-.65.18-1.3.18-1.94,0-.44,0-.89-.02-1.35-.01-.46-.04-.84-.09-1.16h-11.4Z"/>
        <path class="cls-1" d="M112.46,351.06v4.1h25.24v-4.1h.52v7.01c0,.3,0,.59.02.89.01.3.03.59.06.89,0,.3,0,.59.02.89.01.29.02.59.02.89,0,1.45-.08,2.73-.24,3.84-.16,1.11-.62,2.14-1.38,3.1-.66.86-1.41,1.47-2.25,1.83-.84.36-1.62.54-2.36.54-.37,0-.84-.07-1.42-.2-.58-.14-1.17-.43-1.77-.89-.6-.46-1.16-1.11-1.66-1.97-.5-.86-.84-2.01-1.01-3.43h-.07c-.05.39-.14.93-.28,1.61-.14.68-.36,1.37-.68,2.07-.32.7-.74,1.35-1.27,1.94-.53.59-1.21,1.01-2.05,1.25-.49.15-1.05.25-1.68.31-.63.06-1.27.11-1.94.15-.66.04-1.3.07-1.92.11-.61.04-1.13.1-1.55.2-.64.15-1.22.38-1.73.7-.52.32-.78.84-.78,1.55,0,.32.06.65.18,1,.12.34.32.65.59.92l-.41.33c-.1-.12-.2-.26-.31-.42-.11-.16-.22-.36-.31-.61-.1-.25-.18-.55-.24-.9-.06-.36-.09-.79-.09-1.31,0-.98.12-1.8.37-2.45.25-.65.61-1.18,1.09-1.57.48-.39,1.07-.68,1.77-.87.7-.18,1.52-.31,2.45-.39l3.36-.26c1.23-.1,2.19-.34,2.88-.74.69-.39,1.19-.85,1.51-1.38.32-.53.51-1.08.57-1.64s.09-1.06.09-1.48v-3.69h-13.32v4.1h-.52v-11.88h.52ZM126.3,358.84v3.39c0,.69.08,1.32.26,1.88.17.57.47,1.05.9,1.46.43.41,1.01.72,1.75.94.74.22,1.67.33,2.8.33,1.28,0,2.31-.17,3.08-.5.78-.33,1.36-.76,1.75-1.29.39-.53.65-1.12.78-1.77.12-.65.18-1.3.18-1.94,0-.44,0-.89-.02-1.35-.01-.46-.04-.84-.09-1.16h-11.4Z"/>
        <path class="cls-1" d="M125.12,382.05c1.97,0,3.79.39,5.46,1.16,1.67.77,3.12,1.77,4.35,2.99,1.23,1.22,2.2,2.59,2.9,4.11.7,1.52,1.05,3.05,1.05,4.58,0,1.62-.35,3.2-1.05,4.74-.7,1.54-1.67,2.91-2.9,4.11-1.23,1.21-2.68,2.17-4.35,2.9-1.67.73-3.49,1.09-5.46,1.09-1.72,0-3.41-.33-5.05-1-1.65-.66-3.11-1.57-4.39-2.73-1.28-1.16-2.31-2.52-3.1-4.08-.79-1.56-1.18-3.24-1.18-5.04s.38-3.55,1.14-5.13c.76-1.57,1.78-2.93,3.04-4.08,1.27-1.14,2.73-2.04,4.39-2.68,1.66-.64,3.38-.96,5.15-.96ZM125.12,386.29c-2.21,0-4.15.15-5.79.44-1.65.3-3.03.79-4.13,1.48-1.11.69-1.93,1.57-2.47,2.66s-.81,2.42-.81,4.02.27,2.91.81,4c.54,1.09,1.37,1.99,2.47,2.68,1.11.69,2.48,1.18,4.13,1.48,1.65.29,3.58.44,5.79.44,1.7,0,3.34-.11,4.93-.33,1.59-.22,3-.65,4.24-1.27,1.24-.63,2.23-1.5,2.97-2.62.74-1.12,1.11-2.58,1.11-4.37s-.37-3.25-1.11-4.37c-.74-1.12-1.73-1.99-2.97-2.62-1.24-.63-2.66-1.05-4.24-1.27-1.59-.22-3.23-.33-4.93-.33Z"/>
        <path class="cls-1" d="M138.22,412.16v11.11h-.52v-3.84l-21.4,7.6v.07l13.62,4.91,7.79-2.8v-3.1h.52v11.07h-.52v-4.02l-21.4,7.6v.07l21.4,7.75v-3.95h.52v7.9h-.52v-3.32l-26.31-9.56v-.92l17.71-6.35v-.07l-17.71-6.42v-1l26.31-9.41v-3.32h.52Z"/>
      </g>
    </g>
    <g>
      <path class="cls-1" d="M6.5,19.18c-1.71,1.79-3.5,3.41-5.2,4.71l-1.14-.81C4.15,17.56,8.21,8.94,10.49.08l8.86,3.17c-.33.98-1.38,1.63-3.09,1.54-.98,1.95-2.03,3.9-3.25,5.77l1.06.41h14.63l3.33-4.06s3.82,2.93,6.18,5.12c-.16.89-.89,1.3-2.03,1.3h-10v6.99h2.36l2.93-3.66s2.76,2.19,4.8,4.15c3.41-5.28,6.42-12.92,8.05-20.73l8.94,2.93c-.24.98-1.22,1.71-3.01,1.63-.89,1.95-1.87,3.98-2.93,5.85l1.22.49h16.34l3.33-4.06s3.9,2.93,6.34,5.12c-.24.89-.98,1.3-2.11,1.3h-10.97v6.99h2.84l2.93-3.82s3.58,2.68,5.69,4.88c-.16.89-.89,1.3-2.03,1.3h-9.43v7.32h2.84l3.01-3.82s3.5,2.68,5.69,4.88c-.24.89-.98,1.3-2.11,1.3h-9.43v7.15h4.55l3.41-4.39s4.06,3.09,6.5,5.45c-.24.89-.98,1.3-2.11,1.3h-26.25v.89c0,.57-2.19,2.19-5.53,2.19h-1.14v-25.69c-1.46,1.54-3.01,2.93-4.63,4.15l-1.06-.73h-9.02v7.32h2.36l2.93-3.74s3.33,2.68,5.45,4.8c-.24.89-.98,1.3-2.03,1.3h-8.7v7.15h3.66l3.33-4.23s3.9,2.93,6.26,5.28c-.24.89-.98,1.3-2.11,1.3H13.09v1.3c0,.49-2.2,2.11-5.45,2.11h-1.14v-26.09ZM66.49,49.83c-.65.73-1.63.98-3.82,1.06-4.39,4.8-9.67,8.86-15.85,12.19,9.35,2.44,19.67,3.74,30.16,4.23l-.08,1.06c-3.41.89-5.53,3.5-6.34,7.32-11.87-1.54-22.76-4.23-31.86-8.62-10.73,4.47-23.41,7.23-37.23,8.53l-.49-1.3c11.62-2.19,22.76-5.69,32.27-10.24-6.18-3.74-11.3-8.62-15.12-14.63H4.31l-.73-2.36h50.56l5.04-4.31,7.32,7.07ZM13.09,13.33v6.99h6.91v-6.99h-6.91ZM20,22.68h-6.91v7.32h6.91v-7.32ZM20,32.35h-6.91v7.15h6.91v-7.15ZM17.88.08c15.52,2.44,9.75,13.74,4.06,9.35-.33-3.09-2.6-6.75-4.79-8.78l.73-.57ZM20.24,49.42c4.63,4.88,11.22,8.7,18.94,11.46,5.61-3.33,10.49-7.23,14.14-11.46H20.24ZM47.55,13.33v6.99h7.56v-6.99h-7.56ZM55.11,22.68h-7.56v7.32h7.56v-7.32ZM55.11,32.35h-7.56v7.15h7.56v-7.15ZM53,0c15.53,2.44,9.67,13.82,3.98,9.35-.24-3.01-2.52-6.67-4.79-8.78l.81-.57Z"/>
      <path class="cls-1" d="M39.18,153.3l.16.98c-6.91,3.25-16.83,7.72-31.13,13.25-.41.98-1.22,1.79-2.11,1.95l-3.98-10.16c4.23-.41,12.52-1.79,22.27-3.5v-33H4.88l-.73-2.36h20.24v-24.22l10.57,1.06c-.16,1.14-.81,1.95-3.01,2.28v54.95l7.23-1.22ZM73.64,159.07c2.36.89,3.01,1.87,3.01,3.25,0,3.41-3.41,4.8-16.09,4.8h-7.56c-7.32,0-9.51-1.87-9.51-7.88v-63l10.57,1.22c-.16,1.06-.89,1.95-2.93,2.28v20.73h12.44l3.74-6.26s4.47,4.39,6.83,7.32c-.24.89-.98,1.3-2.11,1.3h-20.89v34.3c0,1.95.65,2.68,3.5,2.68h6.5c2.76,0,4.96,0,5.93-.16.89-.08,1.46-.24,1.95-1.06.81-1.38,2.11-6.5,3.41-11.62h.81l.41,12.11Z"/>
      <path class="cls-1" d="M27.8,209.37s4.71,3.9,7.56,6.66c-.24.89-1.06,1.3-2.19,1.3h-12.36v15.36h1.71l3.66-3.98,7.72,5.93c-.57.65-1.79,1.38-3.41,1.71v22.43c-.16.57-3.66,1.95-5.93,1.95h-1.22v-5.12h-12.44v5.2c0,.73-3.01,2.28-5.93,2.28h-1.06v-33.57l7.4,3.17h2.44v-15.36H1.22l-.65-2.36h13.17v-17.23H2.93l-.65-2.28h20.56l3.74-5.04s4.31,3.5,6.83,6.01c-.24.89-1.06,1.3-2.11,1.3h-10.49v17.23h2.93l4.06-5.61ZM10.89,235.06v18.21h12.44v-18.21h-12.44ZM71.12,201.98s3.66,3.74,5.69,6.34c-.24.89-.98,1.3-2.11,1.3h-6.99v51.62c0,.89-3.17,2.68-5.77,2.68h-1.46v-7.4h-15.2v5.12c0,.89-3.17,2.68-5.85,2.68h-1.38v-54.7h-6.42l-.65-2.36h7.07v-17.96l10.24,1.06c-.24,1.14-.89,1.95-3.01,2.28v14.63h15.2v-18.04l10.24,1.06c-.24,1.22-.89,2.11-3.01,2.36v14.63h.08l3.33-5.28ZM60.47,209.62h-15.2v20.57h15.2v-20.57ZM60.47,254.16v-21.62h-15.2v21.62h15.2Z"/>
      <path class="cls-1" d="M27.8,303.66s4.71,3.9,7.56,6.66c-.24.89-1.06,1.3-2.19,1.3h-12.36v15.36h1.71l3.66-3.98,7.72,5.93c-.57.65-1.79,1.38-3.41,1.71v22.43c-.16.57-3.66,1.95-5.93,1.95h-1.22v-5.12h-12.44v5.2c0,.73-3.01,2.28-5.93,2.28h-1.06v-33.57l7.4,3.17h2.44v-15.36H1.22l-.65-2.36h13.17v-17.23H2.93l-.65-2.28h20.56l3.74-5.04s4.31,3.5,6.83,6.01c-.24.89-1.06,1.3-2.11,1.3h-10.49v17.23h2.93l4.06-5.61ZM10.89,329.34v18.21h12.44v-18.21h-12.44ZM71.12,296.26s3.66,3.74,5.69,6.34c-.24.89-.98,1.3-2.11,1.3h-6.99v51.62c0,.89-3.17,2.68-5.77,2.68h-1.46v-7.4h-15.2v5.12c0,.89-3.17,2.68-5.85,2.68h-1.38v-54.7h-6.42l-.65-2.36h7.07v-17.96l10.24,1.06c-.24,1.14-.89,1.95-3.01,2.28v14.63h15.2v-18.04l10.24,1.06c-.24,1.22-.89,2.11-3.01,2.36v14.63h.08l3.33-5.28ZM60.47,303.9h-15.2v20.56h15.2v-20.56ZM60.47,348.44v-21.62h-15.2v21.62h15.2Z"/>
      <path class="cls-1" d="M26.74,380.79c-.33.98-1.3,1.63-3.17,1.63-2.11,6.1-4.63,11.87-7.48,17.15l3.58,1.38c-.24.81-.98,1.3-2.44,1.54v48.12c-.16.57-3.17,2.28-6.18,2.28h-1.38v-42.76c-2.68,3.82-5.53,7.23-8.54,10.16l-1.14-.65c5.93-10.4,12.11-26.74,15.36-42.27l11.38,3.41ZM20.16,451.75c7.64-3.25,16.01-9.35,19.83-13.66l9.67,5.36c-.65.89-2.03,1.22-4.31.81-5.61,3.5-15.61,6.99-24.71,8.53l-.49-1.06ZM67.95,377.54s5.2,3.98,8.45,6.83c-.16.89-1.06,1.3-2.19,1.3h-15.44v6.5h6.18l3.5-3.74,7.4,5.53c-.33.49-1.3,1.06-2.6,1.3v10.97c-.08.57-3.9,2.03-6.34,2.03h-.16l5.93,4.55c-.41.57-1.46,1.22-2.85,1.46v23.9c-.08.57-3.82,2.11-6.34,2.11h-1.3v-3.25h-26.66v1.87c0,.65-3.17,2.28-6.26,2.28h-1.14v-32.27c-.73.16-1.54.24-2.28.24h-1.06v-20.24l7.88,3.25h6.1v-6.5h-13.66l-.65-2.36h38.77l4.71-5.77ZM65.6,407.45v-1.46h-33.49v.98c0,.33-.89.89-2.2,1.38l6.1,2.6h25.52l3.58-3.9.49.41ZM32.11,394.44v9.27h6.67v-9.27h-6.67ZM62.18,418.75v-5.45h-26.66v5.45h26.66ZM35.52,426.71h26.66v-5.61h-26.66v5.61ZM62.18,434.68v-5.69h-26.66v5.69h26.66ZM52.18,385.66h-6.75v6.5h6.75v-6.5ZM52.18,403.71v-9.27h-6.75v9.27h6.75ZM52.27,439.72c35.68,2.76,22.35,17.88,15.69,11.7-2.76-3.41-7.88-7.56-16.09-10.65l.41-1.06ZM58.77,394.44v9.27h6.83v-9.27h-6.83Z"/>
    </g>
  </g>
</svg>