<?xml version="1.0" encoding="UTF-8"?>
<svg id="_圖層_2" data-name="圖層 2" xmlns="http://www.w3.org/2000/svg" viewBox="0 0 339.37 95.35">
  <defs>
    <style>
      .cls-1 {
        fill: #fff;
      }
    </style>
  </defs>
  <g id="_圖層_1-2" data-name="圖層 1">
    <g>
      <path class="cls-1" d="M0,36.11h5.6V1.61H0v-.71h8.83c.5,0,1.02,0,1.54-.03.52-.02,1.05-.04,1.59-.08.54,0,1.06,0,1.56-.02.5-.02.99-.03,1.46-.03,2.45,0,4.47.3,6.05.88,1.58.59,2.82,1.31,3.73,2.17.91.86,1.53,1.78,1.87,2.77.34.99.5,1.89.5,2.7,0,1.11-.24,2.14-.73,3.08-.49.94-1.14,1.76-1.97,2.47-.82.71-1.77,1.28-2.85,1.71-1.08.44-2.2.72-3.38.86v.1c1.21.1,2.45.36,3.71.78,1.26.42,2.4,1.01,3.43,1.76,1.02.76,1.86,1.69,2.5,2.8.64,1.11.96,2.39.96,3.83s-.29,2.9-.86,4.16c-.57,1.26-1.43,2.34-2.57,3.25-1.14.91-2.59,1.62-4.34,2.14-1.75.52-3.78.78-6.1.78-.47,0-.93,0-1.39-.03-.45-.02-.93-.04-1.44-.08s-1.03-.06-1.56-.08c-.54-.02-1.11-.03-1.71-.03H0v-.71ZM10.64,17.2h4.64c.94,0,1.8-.12,2.57-.35.77-.24,1.44-.65,1.99-1.24s.98-1.39,1.29-2.4c.3-1.01.45-2.29.45-3.83,0-1.75-.23-3.15-.68-4.21-.45-1.06-1.04-1.86-1.77-2.4-.72-.54-1.53-.89-2.42-1.06-.89-.17-1.77-.25-2.65-.25-.61,0-1.22,0-1.84.03s-1.15.06-1.59.13v15.58ZM10.64,36.11c.4.03.85.08,1.34.13.49.05,1.18.08,2.09.08,1.58,0,2.93-.15,4.06-.45,1.13-.3,2.05-.83,2.77-1.59.72-.76,1.25-1.76,1.59-3,.34-1.24.5-2.81.5-4.69,0-2.69-.57-4.81-1.71-6.35-1.14-1.55-2.84-2.32-5.09-2.32h-5.55v18.2Z"/>
      <path class="cls-1" d="M35.15,36.11h5.6V1.61h-5.6v-.71h28.84v8.72h-.55c-.44-1.31-.91-2.46-1.41-3.45-.5-.99-1.11-1.83-1.81-2.52-.71-.69-1.55-1.2-2.52-1.54-.98-.34-2.15-.5-3.53-.5h-8.37v15.58h3.28c1.11,0,2.05-.1,2.82-.3.77-.2,1.44-.58,1.99-1.13.55-.55,1.03-1.31,1.41-2.27.39-.96.76-2.19,1.13-3.71h.55v15.68h-.55c-.24-.97-.48-1.92-.73-2.82-.25-.91-.61-1.71-1.06-2.42-.45-.71-1.06-1.27-1.82-1.69-.76-.42-1.74-.63-2.95-.63h-4.08v18.2h9.53c1.85,0,3.39-.39,4.61-1.18,1.23-.79,2.23-1.73,3-2.82.77-1.09,1.34-2.23,1.71-3.4.37-1.18.6-2.15.71-2.92h.55v11.04h-30.76v-.71Z"/>
      <path class="cls-1" d="M80.88,36.11h5.6v-14.47L75.13,1.61h-4.59v-.71h15.43v.71h-5.04l10.08,17.75L100.55,1.61h-5.09v-.71h10.79v.71h-4.89l-9.83,18.41v16.09h5.6v.71h-16.24v-.71Z"/>
      <path class="cls-1" d="M110.18,18.81c0-2.69.53-5.18,1.59-7.46,1.06-2.29,2.42-4.27,4.08-5.95,1.66-1.68,3.54-3,5.62-3.96,2.08-.96,4.17-1.44,6.25-1.44,2.22,0,4.38.48,6.48,1.44,2.1.96,3.98,2.28,5.62,3.96,1.65,1.68,2.97,3.66,3.96,5.95.99,2.29,1.49,4.77,1.49,7.46,0,2.35-.45,4.66-1.36,6.91-.91,2.25-2.15,4.25-3.73,6-1.58,1.75-3.44,3.16-5.57,4.24-2.13,1.08-4.43,1.61-6.88,1.61s-4.86-.52-7.01-1.56c-2.15-1.04-4.01-2.43-5.57-4.16-1.56-1.73-2.78-3.73-3.66-6-.88-2.27-1.31-4.61-1.31-7.03ZM115.98,18.81c0,3.03.2,5.66.6,7.92.4,2.25,1.08,4.13,2.02,5.65.94,1.51,2.15,2.64,3.63,3.38,1.48.74,3.31,1.11,5.5,1.11s3.97-.37,5.47-1.11c1.5-.74,2.71-1.87,3.66-3.38.94-1.51,1.61-3.4,2.02-5.65.4-2.25.6-4.89.6-7.92,0-2.32-.15-4.56-.45-6.73-.3-2.17-.88-4.1-1.74-5.8-.86-1.7-2.05-3.05-3.58-4.06-1.53-1.01-3.52-1.51-5.98-1.51s-4.45.5-5.98,1.51c-1.53,1.01-2.72,2.36-3.58,4.06-.86,1.7-1.44,3.63-1.74,5.8-.3,2.17-.45,4.41-.45,6.73Z"/>
      <path class="cls-1" d="M151.28,36.11h5.6V1.61h-5.6v-.71h10.79l17.04,27.48h.1V1.61h-5.6v-.71h11.95v.71h-5.6v35.9h-1.01L157.73,3.68h-.1v32.42h5.6v.71h-11.95v-.71Z"/>
      <path class="cls-1" d="M189.65,36.11h5.6V1.61h-5.6v-.71h9.38c.47,0,.94,0,1.41-.03.47-.02.94-.04,1.41-.08.47,0,.94,0,1.41-.02s.94-.03,1.41-.03c1.01,0,1.91.02,2.7.05.79.03,1.53.09,2.22.18.69.08,1.34.2,1.97.35s1.29.34,1.99.58c2.05.67,3.82,1.57,5.32,2.7,1.5,1.13,2.72,2.43,3.68,3.91.96,1.48,1.66,3.09,2.12,4.84.45,1.75.68,3.58.68,5.5,0,2.22-.27,4.21-.81,5.98-.54,1.77-1.28,3.33-2.22,4.69-.94,1.36-2.04,2.54-3.3,3.53-1.26.99-2.61,1.79-4.06,2.4-.81.37-1.57.66-2.29.86-.72.2-1.46.35-2.22.45-.76.1-1.59.17-2.5.2-.91.03-1.95.05-3.13.05-.5,0-1.04,0-1.61-.03-.57-.02-1.14-.04-1.71-.08-.57-.03-1.13-.06-1.69-.08-.55-.02-1.08-.03-1.59-.03h-8.57v-.71ZM200.29,36.11c.57.07,1.24.12,1.99.15.76.03,1.59.05,2.5.05,1.14,0,2.28-.06,3.4-.18,1.13-.12,2.2-.37,3.23-.76,1.03-.39,1.98-.94,2.88-1.66.89-.72,1.69-1.67,2.39-2.85,1.08-1.82,1.82-3.67,2.24-5.57.42-1.9.63-3.97.63-6.23,0-2.66-.25-5.07-.76-7.24s-1.34-4.02-2.5-5.55c-1.16-1.53-2.7-2.71-4.61-3.55-1.92-.84-4.29-1.26-7.11-1.26-.84,0-1.61.02-2.29.05-.69.03-1.35.07-1.99.1v34.49Z"/>
      <path class="cls-1" d="M7.61,93.89h5.6v-34.49h-2.92c-.67,0-1.43.06-2.27.18-.84.12-1.69.45-2.55.98-.86.54-1.68,1.39-2.47,2.55-.79,1.16-1.47,2.77-2.04,4.82H.4v-9.23h30.66v9.23h-.55c-.57-2.05-1.25-3.66-2.04-4.82-.79-1.16-1.61-2.01-2.47-2.55-.86-.54-1.71-.87-2.55-.98-.84-.12-1.6-.18-2.27-.18h-2.92v34.49h5.6v.71H7.61v-.71Z"/>
      <path class="cls-1" d="M37.42,76.59c0-2.69.53-5.18,1.59-7.46,1.06-2.29,2.42-4.27,4.08-5.95,1.66-1.68,3.54-3,5.62-3.96,2.08-.96,4.17-1.44,6.25-1.44,2.22,0,4.38.48,6.48,1.44,2.1.96,3.98,2.28,5.62,3.96,1.65,1.68,2.97,3.67,3.96,5.95.99,2.29,1.49,4.77,1.49,7.46,0,2.35-.45,4.66-1.36,6.91-.91,2.25-2.15,4.25-3.73,6-1.58,1.75-3.44,3.16-5.57,4.24-2.13,1.08-4.43,1.61-6.88,1.61s-4.86-.52-7.01-1.56c-2.15-1.04-4.01-2.43-5.57-4.16-1.56-1.73-2.78-3.73-3.66-6-.87-2.27-1.31-4.61-1.31-7.03ZM43.22,76.59c0,3.03.2,5.66.6,7.92.4,2.25,1.08,4.13,2.02,5.65.94,1.51,2.15,2.64,3.63,3.38,1.48.74,3.31,1.11,5.5,1.11s3.97-.37,5.47-1.11c1.5-.74,2.71-1.87,3.66-3.38.94-1.51,1.61-3.4,2.02-5.65.4-2.25.6-4.89.6-7.92,0-2.32-.15-4.56-.45-6.73-.3-2.17-.88-4.1-1.74-5.8-.86-1.7-2.05-3.05-3.58-4.06-1.53-1.01-3.52-1.51-5.98-1.51s-4.45.5-5.98,1.51c-1.53,1.01-2.72,2.36-3.58,4.06-.86,1.7-1.44,3.63-1.74,5.8-.3,2.17-.45,4.41-.45,6.73Z"/>
      <path class="cls-1" d="M78.77,93.89h5.6v-34.49h-5.6v-.71h11.35l9.33,27.13h.1l9.33-27.13h11.14v.71h-5.6v34.49h5.6v.71h-16.24v-.71h5.6v-34.19h-.1l-12.05,34.95-12-34.59h-.1v33.84h5.6v.71h-11.95v-.71Z"/>
      <path class="cls-1" d="M126.27,76.59c0-2.69.53-5.18,1.59-7.46,1.06-2.29,2.42-4.27,4.08-5.95,1.66-1.68,3.54-3,5.62-3.96,2.08-.96,4.17-1.44,6.25-1.44,2.22,0,4.38.48,6.48,1.44,2.1.96,3.98,2.28,5.62,3.96,1.65,1.68,2.97,3.67,3.96,5.95.99,2.29,1.49,4.77,1.49,7.46,0,2.35-.45,4.66-1.36,6.91-.91,2.25-2.15,4.25-3.73,6-1.58,1.75-3.44,3.16-5.57,4.24-2.13,1.08-4.43,1.61-6.88,1.61s-4.86-.52-7.01-1.56c-2.15-1.04-4.01-2.43-5.57-4.16-1.56-1.73-2.78-3.73-3.66-6-.88-2.27-1.31-4.61-1.31-7.03ZM132.07,76.59c0,3.03.2,5.66.6,7.92.4,2.25,1.08,4.13,2.02,5.65.94,1.51,2.15,2.64,3.63,3.38,1.48.74,3.31,1.11,5.5,1.11s3.97-.37,5.47-1.11c1.5-.74,2.71-1.87,3.66-3.38.94-1.51,1.61-3.4,2.02-5.65.4-2.25.6-4.89.6-7.92,0-2.32-.15-4.56-.45-6.73-.3-2.17-.88-4.1-1.74-5.8-.86-1.7-2.05-3.05-3.58-4.06-1.53-1.01-3.52-1.51-5.98-1.51s-4.45.5-5.98,1.51c-1.53,1.01-2.72,2.36-3.58,4.06-.86,1.7-1.44,3.63-1.74,5.8-.3,2.17-.45,4.41-.45,6.73Z"/>
      <path class="cls-1" d="M167.82,93.89h5.6v-34.49h-5.6v-.71h9.58c.4,0,.81,0,1.21-.03.4-.02.81-.04,1.21-.08.4,0,.81,0,1.21-.02s.81-.03,1.21-.03c1.98,0,3.73.11,5.24.33,1.51.22,2.92.85,4.24,1.89,1.18.91,2.01,1.93,2.5,3.08.49,1.14.73,2.22.73,3.23,0,.5-.09,1.15-.28,1.94-.19.79-.59,1.6-1.21,2.42-.62.82-1.52,1.58-2.7,2.27-1.18.69-2.74,1.15-4.69,1.39v.1c.54.07,1.27.19,2.19.38.92.19,1.87.5,2.82.93.96.44,1.84,1.02,2.65,1.74.81.72,1.38,1.66,1.71,2.8.2.67.34,1.44.43,2.29.08.86.15,1.74.2,2.65.05.91.1,1.78.15,2.62.05.84.14,1.55.28,2.12.2.88.52,1.66.96,2.37.44.71,1.14,1.06,2.12,1.06.44,0,.89-.08,1.36-.25.47-.17.89-.44,1.26-.81l.45.55c-.17.13-.36.28-.58.43-.22.15-.5.3-.83.43-.34.13-.75.24-1.24.33-.49.08-1.08.13-1.79.13-1.34,0-2.46-.17-3.35-.5-.89-.34-1.61-.83-2.14-1.49-.54-.66-.93-1.46-1.19-2.42-.25-.96-.43-2.08-.53-3.35l-.35-4.59c-.13-1.68-.47-2.99-1.01-3.93-.54-.94-1.17-1.63-1.89-2.07-.72-.44-1.47-.7-2.24-.78-.77-.08-1.45-.13-2.02-.13h-5.04v18.2h5.6v.71h-16.24v-.71ZM178.46,74.98h4.64c.94,0,1.8-.12,2.57-.35.77-.24,1.44-.65,1.99-1.24.55-.59.98-1.39,1.29-2.4s.45-2.29.45-3.83c0-1.75-.23-3.15-.68-4.21-.45-1.06-1.04-1.86-1.77-2.4-.72-.54-1.53-.89-2.42-1.06-.89-.17-1.77-.25-2.65-.25-.61,0-1.22,0-1.84.03s-1.15.06-1.59.13v15.58Z"/>
      <path class="cls-1" d="M205.74,93.89h5.6v-34.49h-5.6v-.71h9.58c.4,0,.81,0,1.21-.03.4-.02.81-.04,1.21-.08.4,0,.81,0,1.21-.02s.81-.03,1.21-.03c1.98,0,3.73.11,5.24.33,1.51.22,2.92.85,4.24,1.89,1.18.91,2.01,1.93,2.5,3.08.49,1.14.73,2.22.73,3.23,0,.5-.09,1.15-.28,1.94-.19.79-.59,1.6-1.21,2.42-.62.82-1.52,1.58-2.7,2.27-1.18.69-2.74,1.15-4.69,1.39v.1c.54.07,1.27.19,2.19.38.92.19,1.87.5,2.82.93.96.44,1.84,1.02,2.65,1.74.81.72,1.38,1.66,1.71,2.8.2.67.34,1.44.43,2.29.08.86.15,1.74.2,2.65.05.91.1,1.78.15,2.62.05.84.14,1.55.28,2.12.2.88.52,1.66.96,2.37.44.71,1.14,1.06,2.12,1.06.44,0,.89-.08,1.36-.25.47-.17.89-.44,1.26-.81l.45.55c-.17.13-.36.28-.58.43-.22.15-.5.3-.83.43-.34.13-.75.24-1.24.33s-1.08.13-1.79.13c-1.34,0-2.46-.17-3.35-.5-.89-.34-1.61-.83-2.14-1.49-.54-.66-.93-1.46-1.19-2.42-.25-.96-.43-2.08-.53-3.35l-.35-4.59c-.13-1.68-.47-2.99-1.01-3.93-.54-.94-1.17-1.63-1.89-2.07-.72-.44-1.47-.7-2.24-.78-.77-.08-1.45-.13-2.02-.13h-5.04v18.2h5.6v.71h-16.24v-.71ZM216.38,74.98h4.64c.94,0,1.8-.12,2.57-.35.77-.24,1.44-.65,1.99-1.24.55-.59.98-1.39,1.29-2.4s.45-2.29.45-3.83c0-1.75-.23-3.15-.68-4.21-.45-1.06-1.04-1.86-1.77-2.4-.72-.54-1.53-.89-2.42-1.06-.89-.17-1.77-.25-2.65-.25-.61,0-1.22,0-1.84.03s-1.15.06-1.59.13v15.58Z"/>
      <path class="cls-1" d="M245.57,76.59c0-2.69.53-5.18,1.59-7.46,1.06-2.29,2.42-4.27,4.08-5.95,1.66-1.68,3.54-3,5.62-3.96,2.08-.96,4.17-1.44,6.25-1.44,2.22,0,4.38.48,6.48,1.44,2.1.96,3.98,2.28,5.62,3.96,1.65,1.68,2.97,3.67,3.96,5.95.99,2.29,1.49,4.77,1.49,7.46,0,2.35-.45,4.66-1.36,6.91-.91,2.25-2.15,4.25-3.73,6-1.58,1.75-3.44,3.16-5.57,4.24-2.13,1.08-4.43,1.61-6.88,1.61s-4.86-.52-7.01-1.56c-2.15-1.04-4.01-2.43-5.57-4.16-1.56-1.73-2.78-3.73-3.66-6-.88-2.27-1.31-4.61-1.31-7.03ZM251.37,76.59c0,3.03.2,5.66.6,7.92.4,2.25,1.08,4.13,2.02,5.65.94,1.51,2.15,2.64,3.63,3.38,1.48.74,3.31,1.11,5.5,1.11s3.97-.37,5.47-1.11c1.5-.74,2.71-1.87,3.66-3.38.94-1.51,1.61-3.4,2.02-5.65.4-2.25.6-4.89.6-7.92,0-2.32-.15-4.56-.45-6.73-.3-2.17-.88-4.1-1.74-5.8-.86-1.7-2.05-3.05-3.58-4.06-1.53-1.01-3.52-1.51-5.98-1.51s-4.45.5-5.98,1.51c-1.53,1.01-2.72,2.36-3.58,4.06-.86,1.7-1.44,3.63-1.74,5.8-.3,2.17-.45,4.41-.45,6.73Z"/>
      <path class="cls-1" d="M284.2,58.69h15.18v.71h-5.24l10.39,29.25h.1l6.71-18.61-3.83-10.64h-4.24v-.71h15.13v.71h-5.5l10.39,29.25h.1l10.59-29.25h-5.4v-.71h10.79v.71h-4.54l-13.06,35.95h-1.26l-8.67-24.21h-.1l-8.77,24.21h-1.36l-12.86-35.95h-4.54v-.71Z"/>
    </g>
  </g>
</svg>